<svg width="21" height="21" viewBox="0 0 21 21" fill="none" xmlns="http://www.w3.org/2000/svg">
<path d="M5.34727 4.85H5.19727H4.36457H4.21457H4.06457V4.85676C3.35945 4.92059 2.77197 5.43011 2.60906 6.11912L2.60236 6.11816L2.58115 6.26666L2.55994 6.41515L0.888079 18.1182L0.866865 18.2667L0.845652 18.4152L0.852265 18.4161C0.805833 19.2986 1.47009 20.0645 2.35028 20.1433V20.15H2.50028H2.65028H18.0443H18.1943H18.3443V20.1433C19.2245 20.0645 19.8887 19.2986 19.8423 18.4161L19.8489 18.4152L19.8277 18.2667C19.8277 18.2667 19.8277 18.2667 19.8277 18.2667L19.8064 18.1182L18.1346 6.41515L18.1134 6.26666C18.1134 6.26661 18.1134 6.26657 18.1133 6.26652L18.0922 6.11816L18.0855 6.11912C17.9226 5.43011 17.3351 4.92059 16.63 4.85676V4.85H16.48H16.33H15.4973H15.3473H15.1973V4.8674C14.9106 4.93512 14.6973 5.19264 14.6973 5.5C14.6973 5.80736 14.9106 6.06488 15.1973 6.1326V6.15H15.3473H15.4973H16.33H16.48C16.6541 6.15 16.8018 6.27808 16.8265 6.45051L16.8477 6.599L18.5196 18.302L18.5408 18.4505C18.5709 18.6614 18.4073 18.85 18.1943 18.85H18.0443H2.65028H2.50028C2.28728 18.85 2.12367 18.6613 2.1538 18.4505L2.17501 18.302L3.84687 6.599L3.86808 6.4505C3.89272 6.27807 4.04039 6.15 4.21457 6.15H4.36457H5.19727H5.34727H5.49727V6.13261C5.78394 6.06489 5.99727 5.80736 5.99727 5.5C5.99727 5.19264 5.78394 4.93511 5.49727 4.86739V4.85H5.34727ZM12.3473 4.85H12.1973H8.49727H8.34727H8.19727V4.86739C7.9106 4.93511 7.69727 5.19264 7.69727 5.5C7.69727 5.80736 7.9106 6.06489 8.19727 6.13261V6.15H8.34727H8.49727H12.1973H12.3473H12.4973V6.1326C12.7839 6.06488 12.9973 5.80736 12.9973 5.5C12.9973 5.19264 12.7839 4.93512 12.4973 4.8674V4.85H12.3473ZM14.4973 7.35V5.15V5V4.85H14.4946C14.4174 2.67728 12.67 0.929853 10.4973 0.85266V0.85H10.3473H10.1973V0.85266C8.02455 0.929851 6.27712 2.67728 6.19993 4.85H6.19727V5V5.15V7.35V7.5V7.65H6.21467C6.28238 7.93667 6.53992 8.15 6.84727 8.15C7.15463 8.15 7.41216 7.93667 7.47988 7.65H7.49727V7.5V7.35V5.15V5C7.49727 3.42599 8.77327 2.15 10.3473 2.15C11.9213 2.15 13.1973 3.42599 13.1973 5V5.15V7.35V7.5V7.65H13.2147C13.2824 7.93667 13.54 8.15 13.8473 8.15C14.1546 8.15 14.4122 7.93667 14.4799 7.65H14.4973V7.5V7.35Z" fill="black" stroke="black" stroke-width="0.3"/>
</svg>
