<?xml version="1.0" encoding="utf-8"?>
<!-- Generator: Adobe Illustrator 26.0.3, SVG Export Plug-In . SVG Version: 6.00 Build 0)  -->
<svg version="1.1" id="Слой_1" xmlns="http://www.w3.org/2000/svg" xmlns:xlink="http://www.w3.org/1999/xlink" x="0px" y="0px"
	 viewBox="0 0 21 21" style="enable-background:new 0 0 21 21;" xml:space="preserve">
<path d="M5.3,4.8H5.2H4.4H4.2H4.1v0C3.4,4.9,2.8,5.4,2.6,6.1l0,0l0,0.1l0,0.1L0.9,18.1l0,0.1l0,0.1l0,0c0,0.9,0.6,1.6,1.5,1.7v0h0.1
	h0.2H18h0.1h0.1v0c0.9-0.1,1.5-0.8,1.5-1.7l0,0l0-0.1l0,0l0-0.1L18.1,6.4l0-0.1c0,0,0,0,0,0l0-0.1l0,0c-0.2-0.7-0.8-1.2-1.5-1.3v0
	h-0.1h-0.1h-0.8h-0.2h-0.1v0c-0.3,0.1-0.5,0.3-0.5,0.6s0.2,0.6,0.5,0.6v0h0.1h0.2h0.8h0.1c0.2,0,0.3,0.1,0.3,0.3l0,0.1l1.7,11.7
	l0,0.1c0,0.2-0.1,0.4-0.3,0.4H18H2.7H2.5c-0.2,0-0.4-0.2-0.3-0.4l0-0.1L3.8,6.6l0-0.1c0-0.2,0.2-0.3,0.3-0.3h0.2h0.8h0.2h0.2v0
	C5.8,6.1,6,5.8,6,5.5S5.8,4.9,5.5,4.9v0H5.3z M12.3,4.8h-0.1H8.5H8.3H8.2v0C7.9,4.9,7.7,5.2,7.7,5.5s0.2,0.6,0.5,0.6v0h0.1h0.1h3.7
	h0.1h0.2v0C12.8,6.1,13,5.8,13,5.5s-0.2-0.6-0.5-0.6v0H12.3z M14.5,7.3V5.2V5V4.8h0c-0.1-2.2-1.8-3.9-4-4v0h-0.2h-0.1v0
	c-2.2,0.1-3.9,1.8-4,4h0V5v0.2v2.2v0.2v0.2h0c0.1,0.3,0.3,0.5,0.6,0.5c0.3,0,0.6-0.2,0.6-0.5h0V7.5V7.3V5.2V5c0-1.6,1.3-2.8,2.9-2.8
	c1.6,0,2.9,1.3,2.9,2.8v0.2v2.2v0.2v0.2h0c0.1,0.3,0.3,0.5,0.6,0.5c0.3,0,0.6-0.2,0.6-0.5h0V7.5V7.3z"/>
</svg>
