<svg width="21" height="19" viewBox="0 0 21 19" fill="none" xmlns="http://www.w3.org/2000/svg">
<path d="M9.70392 2.43917L9.81402 2.3373C10.0069 2.54575 10.1843 2.76869 10.3472 3.00151C10.51 2.76866 10.6874 2.54569 10.8804 2.33726C10.8804 2.33725 10.8804 2.33724 10.8804 2.33723L9.70392 2.43917ZM9.70392 2.43917L9.81402 2.3373C9.47444 1.9703 9.08666 1.64787 8.64586 1.39591C7.74355 0.878923 6.69426 0.628754 5.6561 0.683595C4.12352 0.763159 2.66597 1.5078 1.67047 2.66198C0.673346 3.81336 0.19729 5.32724 0.19729 6.83339C0.19729 8.16064 0.674213 9.43881 1.31471 10.5484L1.31475 10.5484C1.95721 11.6602 2.79381 12.6261 3.67161 13.5085L3.67173 13.5087C5.56514 15.408 7.74813 17.0165 10.1229 18.2622L10.1926 18.1294L10.123 18.2622C10.263 18.3356 10.4317 18.3359 10.5717 18.2622C12.9472 17.0165 15.1295 15.408 17.0228 13.5087L17.0229 13.5085C17.9008 12.6261 18.7373 11.6602 19.3798 10.5492L19.3799 10.5491C20.0211 9.43944 20.4973 8.16194 20.4973 6.83339C20.4973 5.32308 20.0211 3.81458 19.0248 2.66197C18.0286 1.50713 16.571 0.762455 15.039 0.683588L15.0313 0.833389L9.70392 2.43917ZM2.65326 3.51293L2.65366 3.51247L2.6548 3.51114C2.65484 3.51109 2.65488 3.51104 2.65492 3.511C3.42921 2.61332 4.56069 2.0422 5.72357 1.98185L5.72371 1.98184C6.5119 1.94018 7.31396 2.13105 7.99959 2.52388L7.99973 2.52396L8.00064 2.52448C8.53465 2.82971 8.99611 3.3039 9.38458 3.89843L9.51015 3.81638L9.38458 3.89843C9.59704 4.22358 9.95926 4.41952 10.3476 4.41939C10.7361 4.41926 11.0981 4.22308 11.3104 3.89781L11.3104 3.89779C11.6977 3.30416 12.1595 2.83014 12.6932 2.52554L12.6944 2.52485L12.6946 2.52474C12.6948 2.52464 12.695 2.52453 12.6951 2.52443C13.3813 2.13179 14.1815 1.94119 14.9722 1.98187C16.1339 2.04167 17.2653 2.61256 18.0405 3.51119L18.0407 3.51143L18.0413 3.51212C18.8033 4.39363 19.1973 5.5858 19.1973 6.83339C19.1973 7.85665 18.8271 8.90726 18.2544 9.89838C17.6912 10.8726 16.941 11.7475 16.1022 12.5909C14.4032 14.2952 12.459 15.7536 10.3473 16.9078C8.23617 15.7536 6.29165 14.2954 4.59283 12.5912C3.75398 11.7478 3.00358 10.8726 2.44033 9.898C1.86789 8.90621 1.49729 7.85497 1.49729 6.83339C1.49729 5.58902 1.89169 4.39227 2.65326 3.51293Z" fill="black" stroke="black" stroke-width="0.3"/>
</svg>
