<?xml version="1.0" encoding="utf-8"?>
<!-- Generator: Adobe Illustrator 26.0.3, SVG Export Plug-In . SVG Version: 6.00 Build 0)  -->
<svg version="1.1" id="Слой_1" xmlns="http://www.w3.org/2000/svg" xmlns:xlink="http://www.w3.org/1999/xlink" x="0px" y="0px"
	 viewBox="0 0 21 19" style="enable-background:new 0 0 21 19;" xml:space="preserve">
<path d="M10.2,4.1C10.2,4.1,10.2,4.1,10.2,4.1C10.2,4.1,10.2,4.2,10.2,4.1L10.2,4.1z M10.2,4.1C10.2,4.1,10.2,4.1,10.2,4.1
	C10.2,4.1,10.2,4.2,10.2,4.1L10.2,4.1z"/>
<path d="M19,2.7c-1-1.1-2.5-1.9-4-2l-0.4,0c-0.5,0-0.8,0.1-0.9,0.1c-0.4,0.1-1.6,0.5-2.3,1l-0.9,0.6c-0.3-0.4-1.4-0.9-1.8-1.1
	c-0.9-0.5-2-0.7-3-0.6c-1.5,0.1-3,0.8-4,2c-1,1.2-1.5,2.7-1.5,4.2c0,1.3,0.5,2.6,1.1,3.7c0.7,1.1,1.5,2.1,2.4,3
	c1.9,1.9,4.1,3.5,6.5,4.8c0.1,0.1,0.3,0.1,0.5,0c2.4-1.2,4.6-2.9,6.5-4.8c0.9-0.9,1.7-1.9,2.4-3s1.1-2.4,1.1-3.7
	C20.5,5.3,20,3.8,19,2.7z M18.2,9.9c-0.6,1-1.3,1.8-2.2,2.7c-1.7,1.7-3.6,3.2-5.8,4.3c-2.1-1.2-4.1-2.6-5.8-4.3
	C3.8,11.8,3,10.9,2.4,9.9c-0.6-1-0.9-2.1-0.9-3.1c0-1.2,0.4-2.4,1.2-3.3C3.4,2.6,4.6,2,5.7,2c0.1,0,0.1,0,0.2,0C6.7,2,7.3,2.3,8,2.5
	C8.5,2.7,9.7,3.5,10.1,4c0,0,0,0,0,0c0,0,0,0.1,0.1,0.1l0.1,0.1v0c0.1,0.1,0.2,0.2,0.2,0.2c0.4,0,0.4-0.1,0.6-0.5
	c0.4-0.6,1-1.1,1.5-1.4v0c0,0,0,0,0,0C13.4,2.1,14.2,1.9,15,2C16.1,2,17.3,2.6,18,3.5c0.8,0.9,1.2,2.1,1.2,3.3
	C19.2,7.9,18.8,8.9,18.2,9.9z"/>
</svg>
