<?xml version="1.0" standalone="no"?>
<!DOCTYPE svg PUBLIC "-//W3C//DTD SVG 20010904//EN"
 "http://www.w3.org/TR/2001/REC-SVG-20010904/DTD/svg10.dtd">
<svg version="1.0" xmlns="http://www.w3.org/2000/svg"
 width="57.000000pt" height="65.000000pt" viewBox="0 0 57.000000 65.000000"
 preserveAspectRatio="xMidYMid meet">

<g transform="translate(0.000000,65.000000) scale(0.100000,-0.100000)"
fill="#000000" stroke="none">
<path d="M155 643 c-11 -2 -30 -6 -42 -9 -38 -7 -64 -45 -61 -84 2 -28 -1 -35
-17 -38 -11 -2 -23 -7 -28 -11 -7 -7 29 -459 39 -490 3 -10 15 -4 42 22 l37
35 37 -19 37 -19 161 34 c89 19 163 36 166 38 2 3 -3 27 -11 54 -19 65 -20 64
14 64 17 0 33 5 36 10 4 6 -10 10 -35 10 -42 0 -41 -1 -65 68 -3 7 -9 11 -14
8 -5 -4 4 -46 21 -97 17 -50 26 -94 22 -99 -8 -6 -255 -61 -276 -60 -7 0 -152
430 -147 434 15 11 281 58 288 50 5 -5 20 -43 34 -85 l25 -77 -37 -6 c-20 -3
-56 -6 -80 -6 -36 0 -42 2 -32 14 9 11 9 16 0 22 -8 4 -21 -4 -35 -22 l-24
-29 30 -29 c28 -29 55 -31 31 -2 -17 20 14 26 137 26 61 0 102 4 102 10 0 6
-15 10 -34 10 -27 0 -35 5 -40 24 -3 13 -9 31 -12 40 -5 13 2 16 40 16 25 0
46 5 46 10 0 6 -22 10 -49 10 l-49 0 -15 45 -16 45 45 0 c26 0 44 5 44 12 0 8
-26 9 -94 5 -88 -6 -95 -5 -101 13 -14 44 -63 66 -120 53z m80 -38 c28 -28 31
-40 11 -48 -15 -6 -20 -1 -49 46 -16 24 -16 27 -2 27 9 0 27 -11 40 -25z
m-119 -32 c-1 -51 -28 -72 -41 -33 -7 21 17 70 34 70 4 0 8 -17 7 -37z m68 15
c23 -33 20 -45 -14 -50 -35 -5 -48 18 -30 52 14 26 25 25 44 -2z m-70 -304
c37 -113 66 -207 63 -210 -2 -3 -16 1 -31 7 -24 11 -29 10 -54 -15 l-29 -26
-19 220 c-27 302 -23 304 70 24z"/>
</g>
</svg>
