<?xml version="1.0" standalone="no"?>
<!DOCTYPE svg PUBLIC "-//W3C//DTD SVG 20010904//EN"
 "http://www.w3.org/TR/2001/REC-SVG-20010904/DTD/svg10.dtd">
<svg version="1.0" xmlns="http://www.w3.org/2000/svg"
 width="70.000000pt" height="65.000000pt" viewBox="0 0 70.000000 65.000000"
 preserveAspectRatio="xMidYMid meet">

<g transform="translate(0.000000,65.000000) scale(0.100000,-0.100000)"
fill="#000000" stroke="none">
<path d="M25 625 c-48 -47 -19 -115 48 -115 42 0 67 26 67 68 0 66 -69 94
-115 47z m79 -11 c19 -18 21 -55 4 -72 -19 -19 -55 -14 -72 10 -20 29 -20 34
4 58 24 24 43 25 64 4z"/>
<path d="M580 630 c-46 -46 -18 -120 47 -120 67 0 96 68 48 115 -29 30 -68 32
-95 5z m80 -20 c24 -24 24 -29 4 -58 -17 -24 -53 -29 -72 -10 -19 19 -14 55
10 72 29 20 34 20 58 -4z"/>
<path d="M30 470 c-17 -17 -20 -33 -20 -113 0 -66 4 -99 15 -113 10 -14 14
-47 15 -121 0 -96 -1 -103 -20 -103 -11 0 -20 -4 -20 -10 0 -6 123 -10 350
-10 227 0 350 4 350 10 0 6 -9 10 -20 10 -19 0 -20 7 -20 103 1 74 5 107 15
121 11 14 15 47 15 113 0 80 -3 96 -20 113 -11 11 -27 20 -36 20 -26 0 -54
-20 -54 -39 0 -28 -42 -61 -78 -61 -38 0 -38 2 -12 46 24 38 10 56 -14 19 -16
-24 -20 -25 -126 -25 -106 0 -110 1 -126 26 -11 16 -20 22 -27 15 -6 -6 -2
-19 12 -37 29 -36 27 -44 -12 -44 -33 0 -77 33 -77 57 0 18 -30 43 -51 43 -10
0 -28 -9 -39 -20z m69 -32 c17 -44 53 -67 110 -70 32 -2 56 -8 59 -15 3 -10
-14 -13 -60 -13 -56 0 -68 3 -88 25 -23 25 -50 33 -50 16 0 -5 7 -14 15 -21
12 -10 15 -41 15 -161 0 -142 1 -149 20 -149 11 0 20 -7 20 -16 0 -12 -9 -14
-37 -12 l-38 3 -3 113 c-1 63 -7 112 -12 112 -6 0 -10 44 -10 105 l0 105 25 0
c17 0 28 -7 34 -22z m561 -83 c0 -61 -4 -105 -10 -105 -5 0 -11 -49 -12 -112
l-3 -113 -37 -3 c-29 -2 -38 0 -38 12 0 9 9 16 20 16 19 0 20 7 20 149 0 120
3 151 15 161 8 7 15 16 15 21 0 17 -27 9 -50 -16 -20 -22 -32 -25 -88 -25 -46
0 -63 3 -60 13 3 7 27 13 59 15 57 3 93 26 110 70 6 15 17 22 34 22 l25 0 0
-105z m-210 46 c0 -5 -9 -12 -19 -16 -32 -10 -35 -38 -7 -62 20 -17 26 -31 26
-63 l0 -40 -100 0 -100 0 0 40 c0 32 6 46 26 63 28 24 25 52 -7 62 -45 15 -12
25 81 25 55 0 100 -4 100 -9z m-256 -91 c36 0 36 0 36 -45 l0 -45 -45 0 c-25
0 -45 -4 -45 -10 0 -6 38 -10 95 -10 l95 0 0 -90 0 -90 -79 0 c-71 0 -79 2
-84 21 -3 11 -15 23 -26 26 -20 5 -21 12 -21 135 0 124 1 128 19 118 11 -5 36
-10 55 -10z m386 -109 c0 -122 -1 -129 -21 -134 -11 -3 -23 -15 -26 -26 -5
-19 -13 -21 -69 -21 l-64 0 0 60 0 60 64 0 c59 0 65 -2 68 -22 2 -12 9 -23 16
-26 10 -3 13 5 10 29 l-3 34 -87 3 -87 3 -3 -66 c-4 -95 -23 -81 -23 18 l0 82
58 3 57 3 0 54 0 55 38 0 c20 0 44 5 52 10 8 5 16 10 18 10 1 0 2 -58 2 -129z"/>
</g>
</svg>
