<?xml version="1.0" standalone="no"?>
<!DOCTYPE svg PUBLIC "-//W3C//DTD SVG 20010904//EN"
 "http://www.w3.org/TR/2001/REC-SVG-20010904/DTD/svg10.dtd">
<svg version="1.0" xmlns="http://www.w3.org/2000/svg"
 width="78.000000pt" height="48.000000pt" viewBox="0 0 78.000000 48.000000"
 preserveAspectRatio="xMidYMid meet">

<g transform="translate(0.000000,48.000000) scale(0.100000,-0.100000)"
fill="#000000" stroke="none">
<path d="M0 287 c0 -207 2 -217 51 -217 24 0 39 -15 39 -41 0 -5 -20 -9 -45
-9 -25 0 -45 -4 -45 -10 0 -6 137 -10 390 -10 253 0 390 4 390 10 0 6 -18 10
-40 10 -22 0 -40 4 -40 8 0 18 26 41 50 44 29 4 37 29 15 51 -9 9 -15 33 -15
60 0 43 0 44 -47 58 -41 13 -52 22 -73 61 -14 25 -37 58 -52 73 -15 15 -30 36
-33 46 -4 10 -15 19 -26 19 -12 0 -19 7 -19 20 0 19 -7 20 -250 20 l-250 0 0
-193z m475 38 l0 -130 -225 0 -225 0 -3 119 c-1 66 0 126 2 133 4 11 50 13
228 11 l223 -3 0 -130z m55 76 c14 -27 13 -31 -10 -31 -15 0 -20 7 -20 25 0
30 15 33 30 6z m79 -110 c26 -50 37 -61 69 -69 33 -9 27 -10 -50 -11 -71 -1
-88 -4 -88 -16 0 -12 17 -15 95 -15 87 0 95 -2 95 -19 0 -29 -16 -34 -51 -16
-40 21 -73 13 -101 -25 -15 -21 -30 -30 -50 -30 l-28 0 0 70 0 70 48 0 c27 0
51 3 55 6 3 4 -5 28 -18 55 -21 40 -30 48 -57 52 -30 3 -29 4 8 5 41 2 42 1
73 -57z m-51 4 c16 -35 16 -35 -23 -35 -32 0 -35 2 -35 30 0 25 4 30 23 30 16
0 28 -9 35 -25z m-78 -165 l0 -40 -123 0 c-117 0 -123 1 -132 22 -6 12 -22 29
-36 37 -33 18 -80 2 -99 -35 -8 -14 -22 -24 -36 -24 -23 0 -34 17 -34 56 l0
24 230 0 230 0 0 -40z m-280 -19 c16 -31 12 -59 -13 -75 -49 -33 -104 21 -72
70 20 30 69 33 85 5z m478 7 c21 -21 14 -66 -13 -84 -23 -15 -27 -15 -50 0
-17 11 -25 26 -25 44 0 35 16 52 50 52 14 0 31 -5 38 -12z m72 -18 c0 -5 -6
-10 -14 -10 -8 0 -18 5 -21 10 -3 6 3 10 14 10 12 0 21 -4 21 -10z m-180 -49
c5 -11 10 -22 10 -25 0 -3 -81 -6 -180 -6 -99 0 -180 3 -180 6 0 3 5 14 10 25
10 18 23 19 170 19 147 0 160 -1 170 -19z"/>
<path d="M174 396 c-48 -48 -47 -95 1 -143 32 -32 40 -35 77 -30 60 8 93 45
93 103 0 39 -5 50 -33 75 -46 42 -93 40 -138 -5z m106 -13 c0 -9 6 -13 15 -9
8 3 15 2 16 -2 0 -4 2 -22 5 -39 2 -18 -1 -33 -6 -33 -6 0 -10 -9 -10 -20 0
-13 -7 -20 -18 -20 -10 0 -24 -6 -30 -12 -10 -10 -15 -10 -22 2 -5 8 -17 15
-27 15 -11 0 -17 6 -15 16 1 9 -5 19 -13 23 -10 4 -13 11 -8 18 4 7 8 22 8 33
0 11 6 19 13 17 7 -1 15 4 18 11 7 19 74 19 74 0z"/>
<path d="M236 351 c-12 -13 -15 -27 -10 -45 12 -51 43 -22 44 42 0 27 -11 28
-34 3z"/>
<path d="M135 106 c-20 -15 -17 -44 7 -59 12 -8 21 -7 32 2 36 30 -1 85 -39
57z m35 -26 c0 -5 -4 -10 -10 -10 -5 0 -10 5 -10 10 0 6 5 10 10 10 6 0 10 -4
10 -10z"/>
<path d="M616 101 c-26 -29 1 -69 38 -55 17 7 28 32 20 45 -14 23 -42 28 -58
10z m34 -21 c0 -5 -4 -10 -10 -10 -5 0 -10 5 -10 10 0 6 5 10 10 10 6 0 10 -4
10 -10z"/>
</g>
</svg>
