<?xml version="1.0" standalone="no"?>
<!DOCTYPE svg PUBLIC "-//W3C//DTD SVG 20010904//EN"
 "http://www.w3.org/TR/2001/REC-SVG-20010904/DTD/svg10.dtd">
<svg version="1.0" xmlns="http://www.w3.org/2000/svg"
 width="78.000000pt" height="63.000000pt" viewBox="0 0 78.000000 63.000000"
 preserveAspectRatio="xMidYMid meet">

<g transform="translate(0.000000,63.000000) scale(0.100000,-0.100000)"
fill="#000000" stroke="none">
<path d="M12 618 c-19 -19 -16 -212 4 -232 17 -18 64 -22 64 -6 0 6 -8 10 -18
10 -34 0 -42 21 -42 106 0 45 3 89 6 98 5 13 26 16 128 16 82 0 126 -4 134
-12 7 -7 12 -43 12 -90 0 -56 5 -86 16 -104 22 -32 14 -38 -33 -25 -48 14
-123 14 -123 1 0 -5 19 -10 43 -10 l42 0 -3 -171 c-2 -120 1 -175 9 -185 15
-19 269 -20 287 -2 15 15 17 232 2 223 -5 -3 -10 -35 -10 -71 l0 -64 -135 0
-135 0 0 131 c0 121 1 131 18 124 9 -4 32 -9 50 -12 27 -5 32 -2 32 13 0 11
-9 33 -20 49 -16 23 -20 47 -20 108 0 120 4 117 -158 117 -94 0 -142 -4 -150
-12z m516 -565 l-3 -28 -128 -3 c-107 -2 -128 0 -133 13 -16 40 0 45 136 45
l131 0 -3 -27z"/>
<path d="M360 50 c0 -5 16 -10 35 -10 19 0 35 5 35 10 0 6 -16 10 -35 10 -19
0 -35 -4 -35 -10z"/>
<path d="M70 560 c0 -6 37 -10 90 -10 53 0 90 4 90 10 0 6 -37 10 -90 10 -53
0 -90 -4 -90 -10z"/>
<path d="M330 550 c0 -6 38 -10 100 -10 93 0 100 -1 100 -20 0 -19 -7 -20
-100 -20 -60 0 -100 -4 -100 -10 0 -6 44 -10 111 -10 l110 0 -3 38 -3 37 -107
3 c-70 2 -108 -1 -108 -8z"/>
<path d="M70 510 c0 -6 37 -10 90 -10 53 0 90 4 90 10 0 6 -37 10 -90 10 -53
0 -90 -4 -90 -10z"/>
<path d="M565 475 c-80 -21 -119 -88 -81 -140 8 -12 11 -34 8 -62 -2 -23 -2
-43 2 -43 4 0 23 11 43 24 26 18 44 23 67 19 72 -12 176 45 176 97 0 82 -104
133 -215 105z m139 -31 c63 -31 68 -88 11 -124 -24 -15 -50 -20 -97 -20 -46 0
-69 -4 -78 -15 -18 -21 -29 -19 -23 6 3 11 -3 35 -13 54 -14 27 -16 39 -7 58
24 52 136 74 207 41z"/>
<path d="M530 400 c0 -6 32 -10 75 -10 43 0 75 4 75 10 0 6 -32 10 -75 10 -43
0 -75 -4 -75 -10z"/>
<path d="M555 350 c3 -5 37 -10 76 -10 39 0 69 4 69 10 0 6 -32 10 -76 10 -47
0 -73 -4 -69 -10z"/>
<path d="M70 455 c0 -13 13 -15 85 -13 48 2 85 7 85 13 0 6 -37 11 -85 13 -72
2 -85 0 -85 -13z"/>
<path d="M110 380 c0 -5 5 -10 10 -10 6 0 10 5 10 10 0 6 -4 10 -10 10 -5 0
-10 -4 -10 -10z"/>
<path d="M284 296 c-3 -8 -4 -27 -2 -43 3 -26 7 -28 43 -28 40 0 40 0 43 43
l3 42 -41 0 c-26 0 -43 -5 -46 -14z m64 -29 c2 -12 -3 -17 -17 -17 -15 0 -21
6 -21 21 0 25 33 22 38 -4z"/>
<path d="M284 196 c-3 -8 -4 -27 -2 -43 3 -25 7 -28 46 -31 l43 -3 -3 43 c-3
42 -4 43 -41 46 -26 2 -39 -1 -43 -12z m66 -36 c0 -13 -7 -20 -20 -20 -13 0
-20 7 -20 20 0 13 7 20 20 20 13 0 20 -7 20 -20z"/>
<path d="M397 204 c-4 -4 -7 -25 -7 -46 l0 -38 46 0 45 0 -3 43 c-3 40 -4 42
-38 45 -20 2 -39 0 -43 -4z m61 -41 c-2 -10 -12 -18 -23 -18 -11 0 -21 8 -23
18 -3 13 3 17 23 17 20 0 26 -4 23 -17z"/>
</g>
</svg>
