<?xml version="1.0" standalone="no"?>
<!DOCTYPE svg PUBLIC "-//W3C//DTD SVG 20010904//EN"
 "http://www.w3.org/TR/2001/REC-SVG-20010904/DTD/svg10.dtd">
<svg version="1.0" xmlns="http://www.w3.org/2000/svg"
 width="78.000000pt" height="61.000000pt" viewBox="0 0 78.000000 61.000000"
 preserveAspectRatio="xMidYMid meet">

<g transform="translate(0.000000,61.000000) scale(0.100000,-0.100000)"
fill="#000000" stroke="none">
<path d="M170 545 c0 -51 3 -65 15 -65 11 0 15 12 15 50 l0 50 100 0 100 0 0
-48 0 -49 -73 5 c-82 5 -128 -11 -181 -64 -54 -54 -79 -142 -58 -203 8 -24 7
-32 -5 -42 -8 -7 -13 -23 -10 -35 3 -16 -5 -32 -24 -50 -27 -26 -38 -54 -22
-54 4 0 22 14 40 32 32 31 33 31 53 13 19 -17 19 -20 4 -36 -11 -12 -34 -19
-67 -21 -29 -2 -52 -8 -55 -15 -3 -10 79 -13 387 -13 l391 0 0 305 0 305 -305
0 -305 0 0 -65z m350 -7 c0 -35 -4 -45 -23 -53 -15 -7 -29 -7 -44 0 -19 8 -23
18 -23 52 l0 43 45 0 45 0 0 -42z m230 -233 l0 -275 -281 0 c-245 0 -280 2
-269 15 9 11 26 13 76 8 82 -8 139 13 192 71 55 60 73 134 49 210 -10 31 -31
67 -52 88 l-35 34 60 -2 60 -3 0 65 0 64 100 0 100 0 0 -275z m-353 138 c92
-47 130 -171 81 -263 -69 -128 -256 -139 -335 -19 -71 107 -18 261 104 299 40
13 106 6 150 -17z m-210 -379 c-10 -10 -87 66 -87 85 0 10 19 -3 47 -31 26
-26 44 -51 40 -54z"/>
<path d="M510 95 l0 -35 105 0 c85 0 105 3 105 14 0 19 -17 29 -25 16 -10 -15
-168 -13 -163 3 3 8 31 13 81 15 108 4 97 22 -13 22 l-90 0 0 -35z"/>
<path d="M240 439 c-32 -13 -78 -56 -96 -91 -18 -35 -18 -121 1 -157 20 -39
68 -78 114 -92 108 -32 221 54 221 168 0 60 -15 95 -57 135 -48 46 -123 61
-183 37z m148 -39 c35 -21 71 -87 72 -129 0 -35 -36 -103 -67 -125 -14 -11
-47 -21 -73 -24 -116 -11 -197 95 -155 203 33 87 142 124 223 75z"/>
<path d="M307 384 c-11 -11 3 -24 24 -24 12 0 19 5 17 13 -5 14 -31 21 -41 11z"/>
<path d="M329 301 c-36 -45 -44 -48 -70 -25 -29 26 -30 -1 -1 -29 l28 -27 49
50 c35 36 46 53 38 61 -8 8 -20 -1 -44 -30z"/>
<path d="M220 200 c0 -13 28 -25 38 -16 3 4 0 11 -8 16 -20 13 -30 12 -30 0z"/>
</g>
</svg>
