<?xml version="1.0" standalone="no"?>
<!DOCTYPE svg PUBLIC "-//W3C//DTD SVG 20010904//EN"
 "http://www.w3.org/TR/2001/REC-SVG-20010904/DTD/svg10.dtd">
<svg version="1.0" xmlns="http://www.w3.org/2000/svg"
 width="73.000000pt" height="61.000000pt" viewBox="0 0 73.000000 61.000000"
 preserveAspectRatio="xMidYMid meet">

<g transform="translate(0.000000,61.000000) scale(0.100000,-0.100000)"
fill="#000000" stroke="none">
<path d="M331 594 c-103 -36 -180 -121 -202 -224 -7 -30 -17 -61 -22 -68 -5
-6 -31 -12 -58 -12 -27 0 -49 -4 -49 -10 0 -11 99 -13 116 -2 17 11 34 48 34
74 0 39 45 121 85 157 51 44 108 69 169 73 28 2 51 8 54 16 5 17 -72 15 -127
-4z"/>
<path d="M525 581 c-7 -12 26 -31 52 -31 16 1 15 3 -6 20 -26 22 -37 25 -46
11z"/>
<path d="M636 511 c-5 -7 0 -21 10 -32 33 -37 47 -18 16 22 -14 16 -21 19 -26
10z"/>
<path d="M275 410 c-24 -27 -24 -83 0 -110 41 -46 115 -11 115 55 0 66 -74
101 -115 55z m70 -55 c0 -30 -4 -41 -17 -43 -26 -5 -44 39 -28 67 19 36 45 22
45 -24z"/>
<path d="M414 318 c-42 -62 -86 -125 -96 -140 l-19 -28 23 0 c19 0 42 26 116
135 51 74 92 137 92 140 0 3 -9 5 -19 5 -14 0 -43 -35 -97 -112z"/>
<path d="M698 405 c-9 -10 7 -61 18 -55 10 6 7 41 -4 52 -5 5 -11 6 -14 3z"/>
<path d="M470 282 c-28 -23 -31 -83 -5 -112 41 -46 115 -11 115 55 0 64 -61
96 -110 57z m65 -57 c0 -30 -4 -41 -17 -43 -26 -5 -44 39 -28 67 19 36 45 22
45 -24z"/>
<path d="M707 273 c-4 -3 -7 -20 -7 -37 1 -29 1 -30 15 -12 24 31 16 74 -8 49z"/>
<path d="M50 230 c0 -6 31 -10 74 -10 41 0 78 5 81 10 4 6 -23 10 -74 10 -47
0 -81 -4 -81 -10z"/>
<path d="M130 180 c0 -5 25 -10 55 -10 30 0 55 5 55 10 0 6 -25 10 -55 10 -30
0 -55 -4 -55 -10z"/>
<path d="M630 118 c-48 -57 -122 -89 -202 -89 -35 0 -76 5 -91 10 -37 14 -280
15 -272 1 3 -6 50 -10 107 -10 60 0 125 -6 162 -16 74 -19 155 -14 219 14 49
22 141 108 131 123 -9 15 -17 9 -54 -33z"/>
<path d="M80 125 c0 -13 9 -16 43 -13 23 2 42 8 42 13 0 6 -19 11 -42 13 -34
3 -43 0 -43 -13z"/>
<path d="M215 100 c-4 -6 8 -10 29 -10 20 0 36 5 36 10 0 6 -13 10 -29 10 -17
0 -33 -4 -36 -10z"/>
</g>
</svg>
