<svg width="19" height="19" viewBox="0 0 19 19" fill="none" xmlns="http://www.w3.org/2000/svg">
<path fill-rule="evenodd" clip-rule="evenodd" d="M8.5981 0.0230685C5.62528 0.332203 3.01987 1.95008 1.43716 4.46986C-0.806867 8.04253 -0.388049 12.7611 2.44904 15.8694C4.01915 17.5896 5.98278 18.6181 8.33758 18.9535C8.77721 19.0161 10.2382 19.0153 10.6972 18.9522C12.8478 18.6565 14.7739 17.7027 16.2388 16.2079C16.7196 15.7173 16.822 15.6 17.1409 15.1747C18.0911 13.9072 18.7133 12.3622 18.9534 10.6735C19.0155 10.236 19.0155 8.7683 18.9533 8.33103C18.7932 7.20533 18.502 6.24621 18.0348 5.30554C17.5399 4.3089 17.0319 3.59838 16.2413 2.79669C14.7747 1.30951 12.9383 0.385671 10.8272 0.0728929C10.3714 0.00533251 9.05211 -0.0241159 8.5981 0.0230685ZM11.7498 4.07372C12.8179 4.14292 13.4425 4.37702 14.0137 4.92222C14.5941 5.4762 14.8619 6.15668 14.9332 7.25914C14.9803 7.98557 14.9802 10.9998 14.9332 11.7378C14.8622 12.8507 14.5887 13.5389 13.9937 14.1021C13.4398 14.6263 12.7994 14.8628 11.7498 14.9308C11.0368 14.9771 7.97937 14.9771 7.26636 14.9308C6.19827 14.8616 5.5737 14.6275 5.00245 14.0823C4.42207 13.5284 4.1543 12.8479 4.08295 11.7454C4.03628 11.0244 4.03654 7.92385 4.08336 7.23791C4.15764 6.14909 4.42634 5.47211 5.00245 4.92222C5.55051 4.39914 6.20934 4.14121 7.16239 4.07655C7.79053 4.03394 11.1044 4.03189 11.7498 4.07372ZM8.15179 5.04455C7.0355 5.06467 6.85531 5.07627 6.60434 5.14428C5.81389 5.35848 5.36516 5.80772 5.1535 6.59669C5.08617 6.84771 5.07454 7.03396 5.05384 8.1916C5.04099 8.91249 5.04099 10.0921 5.05384 10.813C5.07454 11.9706 5.08617 12.1568 5.1535 12.4079C5.36524 13.1971 5.81557 13.6477 6.60434 13.8596C6.8552 13.927 7.04133 13.9386 8.19824 13.9593C8.91867 13.9722 10.0975 13.9722 10.8179 13.9593C11.9844 13.9385 12.1596 13.9274 12.4182 13.858C13.1877 13.6515 13.6537 13.1853 13.8614 12.4142C13.9314 12.1546 13.9422 11.9841 13.9627 10.813C13.9754 10.0921 13.9754 8.91245 13.9627 8.1916C13.9423 7.02987 13.931 6.84861 13.8631 6.59669C13.6498 5.80597 13.1979 5.35421 12.4118 5.14599C12.1221 5.06928 12.0454 5.06567 9.954 5.0308C9.65765 5.02585 8.84666 5.03202 8.15179 5.04455ZM12.6549 5.97233C12.7973 6.02613 12.9623 6.18657 13.0242 6.33129C13.2037 6.75119 12.8832 7.23415 12.4251 7.23415C12.0749 7.23415 11.7748 6.9355 11.7748 6.58706C11.7748 6.13682 12.2367 5.81419 12.6549 5.97233ZM10.4096 6.85102C10.859 7.00875 11.1085 7.16585 11.4612 7.51302C11.8031 7.84956 12.0168 8.18505 12.1717 8.62849C12.2683 8.90483 12.2757 8.96689 12.2757 9.50228C12.2757 10.0377 12.2683 10.0997 12.1717 10.3761C12.0219 10.8047 11.8025 11.1539 11.4806 11.476C11.1587 11.7982 10.8097 12.0177 10.3813 12.1676C10.1052 12.2642 10.0431 12.2716 9.50809 12.2716C8.97304 12.2716 8.91102 12.2642 8.63485 12.1676C8.1917 12.0125 7.85641 11.7987 7.52009 11.4566C7.17484 11.1054 7.01807 10.857 6.85624 10.4044C6.74439 10.0916 6.73978 10.0556 6.74097 9.50228C6.74209 8.97693 6.75104 8.89962 6.84223 8.62849C7.0359 8.05235 7.44919 7.50982 7.94615 7.17919C8.49083 6.81689 8.87977 6.70895 9.58241 6.7252C10.03 6.73553 10.1192 6.74911 10.4096 6.85102ZM9.06984 7.73823C8.09289 8.00133 7.4979 8.98217 7.74334 9.925C7.92103 10.6077 8.40436 11.0906 9.08831 11.2688C10.3654 11.6017 11.6062 10.3601 11.2735 9.08223C11.0146 8.08756 10.0216 7.4819 9.06984 7.73823Z" fill="white"/>
</svg>
