<svg width="80" height="16" viewBox="0 0 80 16" fill="none" xmlns="http://www.w3.org/2000/svg">
<g clip-path="url(#clip0_118_690)">
<path d="M36.266 13.974H39.139V8.03C39.139 4.89 37.136 3.223 34.726 3.223C33.131 3.223 31.926 3.915 31.058 4.873H30.668C30.013 4.021 28.879 3.223 27.196 3.223C25.669 3.223 24.449 3.897 23.811 4.678H23.421V3.525H20.745V13.974H23.6V8.51C23.6 6.646 24.15 6.008 26.063 6.008C27.976 6.008 28.507 6.646 28.507 8.51V13.973H31.381V8.51C31.381 6.646 31.912 6.008 33.826 6.008C35.741 6.008 36.271 6.646 36.271 8.51L36.267 13.973L36.266 13.974ZM9.3 12.478C8.787 12.106 8.556 11.556 8.556 10.723C8.556 9.676 8.876 8.386 9.407 7.831C9.779 7.458 10.31 7.281 11.037 7.281C12.065 7.281 13.323 7.551 13.854 8.097C14.209 8.452 14.369 8.948 14.369 9.64C14.369 10.634 14.085 12.035 13.464 12.62C13.11 12.94 12.632 13.081 11.959 13.081C11.039 13.081 9.883 12.867 9.3 12.478ZM13.82 14.678L13.695 15.636L16.369 15.966L17.636 5.613L14.963 5.284L14.838 6.288H14.529C14.129 5.579 13.057 4.62 11.037 4.62C8.22 4.62 6.147 6.696 5.774 9.533C5.73944 9.81 5.72174 10.0889 5.721 10.368C5.721 13.081 7.564 15.317 10.434 15.636C10.594 15.651 10.753 15.656 10.913 15.654C12.118 15.654 13.022 15.14 13.483 14.679H13.819L13.82 14.678ZM74.31 11.614C72.166 11.614 71.457 10.905 71.457 8.759C71.457 6.612 72.167 5.882 74.31 5.882C76.454 5.882 77.163 6.609 77.163 8.759C77.163 10.908 76.454 11.614 74.31 11.614ZM60.56 11.614C58.415 11.614 57.707 10.905 57.707 8.759C57.707 6.612 58.415 5.882 60.559 5.882C62.703 5.882 63.413 6.609 63.413 8.759C63.413 10.908 62.703 11.614 60.559 11.614H60.56ZM47.163 11.614C45.02 11.614 44.311 10.905 44.311 8.759C44.311 6.612 45.02 5.882 47.163 5.882C49.306 5.882 50.017 6.609 50.017 8.759C50.017 10.908 49.307 11.614 47.163 11.614ZM1.742 0L0 13.953L2.844 14.3L4.558 0.346L1.742 0ZM77.287 12.963V13.973H79.962V3.526H77.287V4.538H76.897C76.471 3.97 75.391 3.225 73.934 3.225C70.744 3.225 68.566 5.652 68.566 8.76C68.566 11.867 70.745 14.277 73.934 14.277C75.388 14.277 76.468 13.532 76.897 12.964H77.287V12.963ZM47.163 3.224C43.619 3.224 41.423 5.651 41.423 8.759C41.423 11.866 43.619 14.276 47.163 14.276C50.707 14.276 52.91 11.863 52.91 8.759C52.91 5.654 50.712 3.224 47.163 3.224ZM63.572 12.963V13.973H66.247V0.12H63.413V4.537H63.023C62.598 3.969 61.64 3.224 60.188 3.224C56.998 3.224 54.818 5.651 54.818 8.759C54.818 11.866 56.998 14.276 60.188 14.276C61.64 14.276 62.774 13.531 63.182 12.963H63.572Z" fill="white"/>
</g>
<defs>
<clipPath id="clip0_118_690">
<rect width="80" height="16" fill="white"/>
</clipPath>
</defs>
</svg>
