<svg width="67" height="58" viewBox="0 0 67 58" fill="none" xmlns="http://www.w3.org/2000/svg">
<path fill-rule="evenodd" clip-rule="evenodd" d="M5.33206 45.2191C5.33206 42.7103 7.37504 40.6814 9.89121 40.6814C12.4074 40.6814 14.4529 42.7103 14.4529 45.2191C14.4529 47.728 12.4119 49.7581 9.89121 49.7581C7.37051 49.7581 5.33206 47.7254 5.33206 45.2191ZM11.8986 38.045C15.0537 38.9199 17.3718 41.7999 17.3718 45.2191C17.3718 49.329 14.0231 52.6606 9.89121 52.6606C8.92992 52.6606 8.00813 52.4796 7.16401 52.1504V56.5863H1.38788V38.0508L11.8986 38.045ZM43.1711 50.8792C41.8816 47.4393 40.2549 43.3249 39.9623 42.651C39.6606 41.9455 39.1486 42.1478 38.9544 42.7386C38.8664 42.9996 37.2701 47.1803 35.8731 50.8792H43.1711ZM36.8842 38.1004H41.8719L47.417 52.1903V38.15H50.9456V46.0606L58.9381 38.1004H63.551L56.4446 45.1972L63.0319 56.5876H59.3641L54.155 47.4831L50.9462 50.6891V56.5876H45.3047L44.1874 53.5916H34.8484L33.7356 56.5444H20.1935C18.4554 56.5444 18.4049 55.7938 18.4049 54.9028V39.0359C18.4049 38.2402 18.9234 38.1004 19.4853 38.1004H30.7747V41.1898H22.8734C21.7911 41.1898 21.9782 41.7999 21.9782 42.1768V44.9363C21.9782 45.826 22.3569 45.9678 22.92 45.9678H30.444V48.9579H22.9686C21.885 48.9579 21.9788 49.4276 21.9788 49.9424V52.4706C21.9788 53.225 22.3575 53.3597 22.7815 53.3597H31.6655L36.8862 38.101L36.8842 38.1004ZM30.9282 2.41785C31.2085 1.9224 31.7393 1.58543 32.3562 1.58543C32.92 1.58543 33.4223 1.87665 33.7149 2.31799L45.6316 21.3406H39.3447C39.3447 21.3406 33.3323 11.6737 33.1705 11.4372C33.0067 11.2014 32.7141 10.8413 32.1037 10.8413C31.4933 10.8413 31.2169 11.1782 31.0511 11.4314C30.89 11.6801 22.7278 23.2998 22.5536 23.5479C22.3802 23.7953 21.9147 24.2637 22.2928 25.0716C22.6449 25.8242 23.4729 25.7887 23.4729 25.7887H48.3698L51.6816 31.0738L14.2879 31.0764L14.1241 31.0822C13.1732 31.0822 12.4009 30.3135 12.4009 29.3671C12.4009 28.9882 12.5239 28.6384 12.733 28.3543L30.9282 2.41785ZM50.4245 1.93593C50.9948 1.93593 51.4142 1.99069 51.6783 2.09958C52.1496 2.29673 52.3859 2.67943 52.3891 3.25349C52.3891 3.66326 52.2376 3.96156 51.9386 4.15356C51.7767 4.25536 51.556 4.32945 51.2712 4.3752C51.6298 4.42996 51.8945 4.58201 52.0622 4.82169C52.2286 5.06523 52.3127 5.30104 52.3127 5.52976V5.86285C52.3127 5.96981 52.3147 6.08256 52.3211 6.20304C52.3308 6.32416 52.3451 6.40406 52.3645 6.44078L51.635 6.49683L51.5987 6.25329V5.89314C51.5987 5.36353 51.4531 5.01368 51.1644 4.84553C50.9941 4.74824 50.6944 4.6967 50.2633 4.6967H49.6282V6.49683H48.8184V1.93657H50.4232L50.4245 1.93593ZM51.2893 2.65495C51.088 2.54156 50.7643 2.48615 50.3164 2.48615H49.6295V4.13745H50.3571C50.6989 4.13745 50.9533 4.10524 51.1236 4.03501C51.4408 3.91002 51.5994 3.67164 51.5994 3.32308C51.5994 2.97452 51.4945 2.7677 51.2893 2.65431V2.65495ZM53.463 7.1772C52.6448 7.99093 51.6615 8.40135 50.5047 8.40135C49.3479 8.40135 48.3653 7.99093 47.5535 7.1772C46.7476 6.3654 46.3443 5.38479 46.3443 4.22765C46.3443 3.07052 46.7522 2.10924 47.5652 1.29744C48.3782 0.490146 49.3564 0.0855342 50.5054 0.0855342C51.6544 0.0855342 52.6448 0.490791 53.4637 1.29744C54.2767 2.10537 54.6852 3.07954 54.6852 4.22765C54.6852 5.37577 54.2761 6.36218 53.4637 7.1772H53.463ZM47.9691 1.70012C47.2726 2.39595 46.9256 3.24061 46.9256 4.2283C46.9256 5.21599 47.2726 6.07418 47.964 6.77517C48.6624 7.47808 49.5085 7.82986 50.5054 7.82986C51.5023 7.82986 52.3496 7.47744 53.0461 6.77517C53.7433 6.07418 54.0948 5.22372 54.0948 4.2283C54.0948 3.23288 53.744 2.39659 53.0461 1.70012C52.3457 0.995912 51.4997 0.64542 50.5054 0.64542C49.5111 0.64542 48.6695 0.996556 47.9691 1.70012ZM11.5704 29.3671C11.5704 28.8046 11.7523 28.2834 12.0637 27.8633L30.2802 1.93657C30.3313 1.85861 30.354 1.81609 30.409 1.742L30.4957 1.62409C30.9463 1.08547 31.5956 0.784585 32.3562 0.784585C33.1168 0.784585 33.8353 1.15505 34.2787 1.72718L47.0214 22.0796H38.8567C38.8567 22.0796 32.6073 12.0976 32.5174 11.9372C32.4313 11.7742 32.307 11.6563 32.1089 11.6563C31.8797 11.6563 31.8053 11.7793 31.7173 11.8972C31.6331 12.0158 23.4864 23.6097 23.2612 23.9184C23.0404 24.2289 22.9103 24.4531 23.0255 24.696C23.146 24.9524 23.4457 24.9602 23.4457 24.9602L48.8735 24.9685L53.1763 31.9114H14.15C12.7136 31.9094 11.5704 30.771 11.5704 29.3684V29.3671ZM10.7392 29.3671C10.7392 28.592 11.0001 27.8801 11.4422 27.3099L29.6044 1.53131C29.6756 1.41985 29.7481 1.31483 29.8316 1.21046C30.42 0.474684 31.3334 0.000488281 32.3562 0.000488281C33.5084 0.000488281 34.5254 0.609984 35.0937 1.52294L48.5233 22.9519H38.465C38.465 22.9519 32.5387 13.4848 32.4513 13.3173C32.3659 13.1536 32.25 13.0312 32.0804 13.0312C31.9108 13.0312 31.8001 13.1781 31.7386 13.2625C31.6778 13.3495 24.4406 23.6684 24.3422 23.805C24.2438 23.939 24.238 24.0144 24.2781 24.0865C24.3254 24.1883 24.46 24.196 24.46 24.196H49.3L54.6114 32.7374H14.1934C12.2553 32.7374 10.7392 31.2297 10.7392 29.3677V29.3671ZM6.27263 45.2191C6.27263 43.2302 7.8929 41.613 9.89121 41.613C11.8895 41.613 13.5156 43.2302 13.5156 45.2191C13.5156 47.208 11.8934 48.8246 9.89121 48.8246C7.88902 48.8246 6.27263 47.2113 6.27263 45.2191ZM39.4897 43.5614L37.0254 50.0835H42.0092L39.4891 43.5614H39.4897ZM46.6201 37.3537H51.745V44.1747L58.6112 37.3066H65.4736L57.4376 45.3087L64.3453 57.3369H58.8462L53.9531 48.7737L51.7444 50.9726V57.3614L44.6898 57.3369L43.6081 54.3467H35.4245L34.291 57.3504H19.809C17.9582 57.3504 17.6171 56.2712 17.6171 55.8002V48.0385C16.4642 51.1717 13.4412 53.4061 9.88992 53.4061C9.22834 53.4061 8.58425 53.3301 7.96734 53.1832L7.86701 57.3208H0.624674V37.306L11.9808 37.2963C14.6225 37.9876 16.749 39.9514 17.6488 42.4906V38.5546C17.6488 37.8143 18.1343 37.306 18.9053 37.306H31.5988V42.2773H23.3369C22.7679 42.2773 22.7796 42.6072 22.7796 42.8449V44.658C22.7796 45.1663 23.0372 45.2655 23.3984 45.2655H31.3832V49.4295L31.2415 49.6679H23.5311C22.8223 49.6679 22.7796 50.0854 22.7796 50.4147V52.0073C22.7796 52.6561 23.2016 52.66 23.5771 52.66H31.0518L36.3217 37.4013H42.4817L46.6201 48.2595V37.355V37.3537ZM6.8863 45.2191C6.8863 43.5652 8.2321 42.2238 9.89186 42.2238C11.5516 42.2238 12.9032 43.5652 12.9032 45.2191C12.9032 46.873 11.5568 48.2131 9.89186 48.2131C8.22692 48.2131 6.8863 46.8717 6.8863 45.2191ZM39.4736 45.4021L37.8734 49.4746H41.0718L39.4736 45.4021ZM35.8757 54.9949H43.1789L44.3156 58.0005H52.4254V51.2709L53.7122 49.9598L58.3471 58.0005H65.381L58.2274 45.4362L67.0006 36.6443H58.3769L52.3367 42.6581V36.6443H45.9333V44.281L42.8805 36.6746H35.7527L31.9542 47.728V44.5085H23.8211C23.5195 44.5085 23.4295 44.3661 23.4295 44.1857V43.41C23.4295 43.2289 23.4088 42.968 23.7596 42.968H32.195V36.6746H18.6658C17.6495 36.6746 17.0572 37.6939 17.0572 38.5243V39.8045C17.0572 39.8045 15.3191 37.1874 12.9259 36.6746H0V57.9741H8.64445V54.071C8.64445 54.071 14.3338 54.8177 16.9678 50.7084V55.7107C16.9678 56.2712 17.1782 58.0005 19.8103 58.0005H34.7377L35.8751 54.9949H35.8757ZM31.0997 50.4288L30.5508 51.9487H23.781C23.5868 51.9487 23.4262 51.9042 23.4262 51.6768V50.7999C23.4262 50.6079 23.4165 50.4288 23.7648 50.4288H31.0997Z" fill="#E30613"/>
</svg>
