<svg width="18" height="18" viewBox="0 0 18 18" fill="none" xmlns="http://www.w3.org/2000/svg">
<path d="M16.0358 16.0423L15.9407 16.1376H10.2336C5.86603 16.1376 4.489 16.1487 4.36686 16.1848V17.9528M16.0358 16.0423L16.1419 16.1484L16.0468 16.2436L16.0029 16.2876H15.9407H10.2336C8.04973 16.2876 6.61417 16.2904 5.7094 16.2976C5.25686 16.3013 4.93806 16.306 4.72515 16.3121C4.61855 16.3151 4.53978 16.3185 4.4846 16.3221C4.44094 16.3249 4.41961 16.3276 4.4121 16.3285C4.40888 16.3289 4.4082 16.329 4.4094 16.3286L4.40938 16.3286C4.28368 16.3658 4.14758 16.4713 4.04095 16.6176C3.93461 16.7635 3.87255 16.9296 3.87255 17.0688C3.87255 17.208 3.93461 17.3741 4.04095 17.52C4.14757 17.6663 4.28367 17.7718 4.40936 17.809M16.0358 16.0423L16.131 15.9471V8.99841V2.04968L16.0358 1.95446M16.0358 16.0423L16.142 16.1484L16.2371 16.0532L16.281 16.0093V15.9471V8.99841V2.04968V1.98756L16.2371 1.94362L16.142 1.84845L16.0358 1.95446M4.40936 17.809C4.40808 17.8086 4.40881 17.8087 4.4123 17.8091C4.42018 17.8101 4.4421 17.8127 4.48657 17.8155C4.54333 17.8191 4.62448 17.8224 4.7344 17.8255C4.95395 17.8316 5.28323 17.8363 5.75121 17.84C6.68688 17.8472 8.17328 17.85 10.4369 17.85C13.0283 17.85 14.5121 17.8482 15.373 17.8398C15.8038 17.8357 16.0768 17.8299 16.254 17.822C16.4347 17.814 16.5047 17.804 16.5375 17.7954M4.40936 17.809C4.40937 17.809 4.40937 17.809 4.40938 17.809L4.36686 17.9528M4.40936 17.809L4.36686 17.9528M16.5375 17.7954L16.5748 17.9384L16.5375 17.7954C16.5375 17.7954 16.5375 17.7954 16.5375 17.7954ZM16.5375 17.7954C17.1533 17.6349 17.6277 17.1592 17.7893 16.5385C17.7887 16.5406 17.7887 16.5408 17.7889 16.5382C17.7894 16.5336 17.7909 16.5204 17.7927 16.494C17.7951 16.4589 17.7976 16.4104 17.7999 16.3487C17.8046 16.2256 17.8091 16.0537 17.8132 15.8396C17.8213 15.4116 17.8282 14.8176 17.8336 14.1127C17.8445 12.7028 17.85 10.8507 17.85 8.99841C17.85 7.14611 17.8445 5.29401 17.8336 3.88416C17.8282 3.17916 17.8213 2.58518 17.8132 2.15719C17.8091 1.94309 17.8046 1.77125 17.7999 1.64808C17.7976 1.58638 17.7951 1.53789 17.7927 1.50284C17.7911 1.47945 17.7898 1.4664 17.7891 1.46054C17.7887 1.45603 17.7886 1.45576 17.7893 1.45829C17.6277 0.837649 17.1533 0.361884 16.5375 0.201364L16.5753 0.0562132M16.5753 0.0562132C17.2442 0.230541 17.7593 0.747668 17.9344 1.4205C18.0219 1.75616 18.0219 16.2407 17.9344 16.5763C17.7593 17.2491 17.2442 17.7663 16.5753 17.9406C16.3755 17.9927 15.6191 18 10.4369 18C5.90974 18 4.48912 17.9889 4.36686 17.9528M16.5753 0.0562132L16.5375 0.201363C16.5047 0.192809 16.435 0.182847 16.2544 0.174898C16.0773 0.167105 15.8042 0.161491 15.3724 0.157605C14.5092 0.149839 13.0196 0.149022 10.4131 0.150768C8.30908 0.152165 6.81608 0.156268 5.83719 0.16381C5.34763 0.167582 4.98732 0.17221 4.74367 0.17777C4.6217 0.180554 4.52999 0.183549 4.46631 0.18673C4.43434 0.188326 4.41073 0.189907 4.39448 0.191399C4.38902 0.191901 4.38514 0.192334 4.38257 0.192646M16.5753 0.0562132C16.3751 0.00402722 15.6253 -0.00272401 10.413 0.000767987C6.20486 0.00356159 4.43921 0.0171804 4.34297 0.047522C4.26833 0.0710735 4.11942 0.178433 4.01205 0.286064C3.73802 0.560885 3.66233 0.850837 3.7697 1.21451M4.38257 0.192646L10.2336 1.85921C5.86603 1.85921 4.489 1.84815 4.36686 1.81203C4.15386 1.74906 3.83263 1.42764 3.7697 1.21451M4.38257 0.192646C4.36578 0.199646 4.32895 0.219851 4.2775 0.256942C4.22352 0.295857 4.16573 0.344407 4.11825 0.392002C3.99515 0.515462 3.92447 0.634226 3.89298 0.754853C3.86157 0.875204 3.8658 1.01027 3.91356 1.17203M4.38257 0.192646C4.37973 0.192989 4.3785 0.193185 4.37849 0.193161C4.37848 0.193118 4.38233 0.19239 4.38807 0.190581L4.34297 0.0475311L4.3881 0.190571C4.38661 0.191043 4.38476 0.191732 4.38257 0.192646ZM4.38257 0.192646L16.1419 1.84841M3.7697 1.21451L3.91356 1.17203M3.7697 1.21451L3.91356 1.17203L3.91356 1.17203M16.0358 1.95446L16.1419 1.84841M16.0358 1.95446L16.1419 1.84841M16.1419 1.84841L16.0468 1.7532L16.0029 1.70921H15.9407H10.2336C8.04973 1.70921 6.61417 1.70644 5.7094 1.69917C5.25686 1.69553 4.93806 1.69077 4.72515 1.6847C4.61855 1.68166 4.53978 1.67833 4.4846 1.67474C4.44096 1.67191 4.41962 1.66925 4.4121 1.66832C4.40888 1.66792 4.4082 1.66783 4.4094 1.66819L4.40938 1.66818C4.33877 1.64731 4.22672 1.57223 4.1181 1.46354C4.00949 1.35487 3.93444 1.24274 3.91356 1.17203M8.14779 5.84416L8.14777 5.8442C8.11992 5.91099 8.10156 6.02264 8.10147 6.14635C8.10138 6.26977 8.11949 6.38161 8.14726 6.44908C8.14719 6.44891 8.14718 6.44887 8.14723 6.44897C8.14757 6.44955 8.15053 6.45533 8.1588 6.46767C8.16818 6.48167 8.18158 6.49995 8.19952 6.52279C8.23539 6.56842 8.28571 6.6275 8.35008 6.69918C8.47861 6.8423 8.65856 7.03059 8.88047 7.25321L9.58632 7.96131L9.8414 8.21721H9.48008H5.142C3.49561 8.21721 2.40221 8.22005 1.7054 8.22736C1.35684 8.23102 1.10865 8.23578 0.940525 8.24181C0.856335 8.24483 0.79361 8.24812 0.749028 8.25162C0.710452 8.25464 0.692939 8.25736 0.688078 8.25811C0.686668 8.25833 0.686322 8.25838 0.686834 8.25823C0.561139 8.29539 0.425031 8.40088 0.318408 8.54717C0.212063 8.69308 0.15 8.85919 0.15 8.99841C0.15 9.13763 0.212063 9.30373 0.318408 9.44964C0.425012 9.5959 0.561089 9.70138 0.686765 9.73856C0.686362 9.73843 0.686741 9.73849 0.688086 9.7387C0.692958 9.73946 0.710473 9.74217 0.749028 9.74519C0.79361 9.74869 0.856335 9.75198 0.940525 9.755C1.10865 9.76103 1.35684 9.7658 1.7054 9.76945C2.40221 9.77676 3.49561 9.7796 5.142 9.7796H9.48008H9.8414L9.58632 10.0355L8.88047 10.7436C8.65856 10.9662 8.47861 11.1545 8.35008 11.2976C8.28571 11.3693 8.23539 11.4284 8.19952 11.474C8.18158 11.4969 8.16818 11.5151 8.1588 11.5291C8.15004 11.5422 8.14724 11.5479 8.1472 11.5479C8.14719 11.5479 8.14727 11.5477 8.14741 11.5474C8.11733 11.6202 8.09943 11.7366 8.10182 11.8635C8.1042 11.9905 8.12649 12.1051 8.15894 12.1751L8.15895 12.1751C8.33188 12.5481 8.79847 12.7234 9.17691 12.5559C9.1771 12.5558 9.17998 12.5544 9.18606 12.5507C9.19263 12.5466 9.20142 12.5407 9.21273 12.5324C9.23549 12.5158 9.26532 12.4921 9.30354 12.4596C9.37995 12.3946 9.4845 12.2993 9.62444 12.1663C9.90406 11.9007 10.319 11.4907 10.9212 10.8868L8.14779 5.84416ZM8.14779 5.84416C8.24491 5.61111 8.46836 5.43293 8.72464 5.38773C8.87895 5.3605 9.09077 5.39189 9.24022 5.46547C9.24077 5.46589 9.24138 5.46637 9.24205 5.46691C9.24861 5.47209 9.25825 5.48012 9.27134 5.49146C9.29733 5.514 9.33303 5.54621 9.37764 5.58737C9.46663 5.6695 9.5879 5.78434 9.73156 5.92215C10.0187 6.19763 10.3932 6.56297 10.7735 6.93772C11.5378 7.69101 12.3139 8.47112 12.459 8.64308C12.5232 8.7192 12.552 8.76162 12.5687 8.79873C12.5842 8.83332 12.5933 8.87257 12.5997 8.95006C12.6092 9.06545 12.5961 9.13764 12.5775 9.17813C12.5771 9.17868 12.5766 9.17928 12.5761 9.17995C12.5705 9.18693 12.5619 9.19716 12.5497 9.21098C12.5257 9.23844 12.4912 9.27636 12.4469 9.32399C12.3585 9.41904 12.2339 9.54984 12.0819 9.70715C11.7781 10.0216 11.3667 10.4402 10.9212 10.8868L11.0274 10.9928L8.14779 5.84416Z" fill="white" stroke="black" stroke-width="0.3"/>
</svg>
