<svg width="70" height="15" viewBox="0 0 70 15" fill="none" xmlns="http://www.w3.org/2000/svg">
<path fill-rule="evenodd" clip-rule="evenodd" d="M8.45615 0.0412733C6.8835 -0.121045 5.29814 0.197889 3.91799 0.954238C2.53783 1.71059 1.43063 2.86722 0.748578 4.26516C0.066521 5.6631 -0.156911 7.23371 0.108992 8.76112C0.374896 10.2885 1.11708 11.6978 2.23354 12.7951C3.34999 13.8924 4.7859 14.624 6.34391 14.8893C7.90191 15.1545 9.50553 14.9405 10.9343 14.2765C12.3631 13.6125 13.547 12.5312 14.3232 11.1812C15.0993 9.83124 15.4297 8.27883 15.2689 6.73739C15.092 5.02398 14.3179 3.42264 13.077 2.20301C11.8361 0.983373 10.2043 0.219946 8.45615 0.0412733ZM8.20812 11.469C7.3623 11.5802 6.50219 11.4289 5.74866 11.0364C4.99514 10.6438 4.38609 10.0298 4.0071 9.28059C3.62811 8.53138 3.49825 7.68464 3.63576 6.85938C3.77327 6.03412 4.17124 5.27182 4.77373 4.67962C5.37623 4.08741 6.15296 3.69509 6.99477 3.55777C7.83658 3.42045 8.70114 3.54505 9.46695 3.91405C10.2328 4.28304 10.8613 4.8779 11.2643 5.615C11.6672 6.3521 11.8243 7.1944 11.7135 8.02351C11.5972 8.89559 11.1908 9.70578 10.5571 10.3287C9.92336 10.9515 9.09777 11.3523 8.20812 11.469ZM19.3629 0.337982C19.0974 0.338604 18.8354 0.397211 18.596 0.509537C18.3565 0.621863 18.1456 0.785083 17.9787 0.98732C17.8117 1.18956 17.6929 1.42572 17.6308 1.67863C17.5687 1.93155 17.5649 2.19484 17.6197 2.44936C17.7877 3.27391 18.5737 3.8373 19.43 3.8373L24.399 3.8373L16.6661 13.8645C16.6089 13.9385 16.5739 14.0267 16.5649 14.1191C16.556 14.2115 16.5736 14.3046 16.6156 14.3878C16.6576 14.471 16.7224 14.5411 16.8028 14.5902C16.8832 14.6394 16.976 14.6656 17.0708 14.6659H29.2006C30.0563 14.6659 30.8429 14.1027 31.0109 13.278C31.0657 13.0235 31.062 12.7603 30.9999 12.5074C30.9379 12.2545 30.8191 12.0184 30.6522 11.8161C30.4853 11.6139 30.2745 11.4506 30.0352 11.3382C29.7958 11.2258 29.5339 11.1671 29.2684 11.1663H23.214L30.941 1.14695C30.9988 1.07221 31.0342 0.983176 31.0431 0.889842C31.0521 0.796508 31.0344 0.702567 30.9919 0.618557C30.9495 0.534548 30.884 0.463794 30.8027 0.414234C30.7215 0.364675 30.6278 0.33827 30.5321 0.337982L19.3629 0.337982ZM67.833 0.378345C67.4315 0.471912 67.0745 0.696966 66.8212 1.0163C66.5678 1.33563 66.4333 1.73011 66.4398 2.13452V7.96077L56.8049 0.448026C56.7293 0.389258 56.6384 0.352583 56.5425 0.342221C56.4466 0.33186 56.3497 0.348231 56.2629 0.389453C56.176 0.430674 56.1029 0.495071 56.0518 0.575236C56.0006 0.6554 55.9737 0.748074 55.9739 0.842598V12.8725C55.9674 13.2769 56.1019 13.6714 56.3552 13.9908C56.6086 14.3101 56.9655 14.5352 57.3671 14.6287C57.6279 14.6849 57.8982 14.6831 58.1582 14.6233C58.4181 14.5635 58.6611 14.4472 58.869 14.2832C59.077 14.1191 59.2448 13.9114 59.3599 13.6753C59.475 13.4393 59.5346 13.1809 59.5342 12.9193V7.0426L69.1693 14.5555C69.2449 14.6142 69.3358 14.6509 69.4316 14.6612C69.5275 14.6716 69.6244 14.6552 69.7111 14.614C69.7979 14.5728 69.8711 14.5084 69.9222 14.4283C69.9733 14.3482 70.0002 14.2555 70 14.161V2.08722C70.0003 1.82565 69.9407 1.56735 69.8255 1.33138C69.7103 1.0954 69.5426 0.887757 69.3346 0.723758C69.1267 0.559759 68.8838 0.443586 68.6239 0.383804C68.364 0.324023 68.0938 0.322157 67.833 0.378345ZM42.7463 3.50235C46.8216 3.50235 49.8666 5.61259 49.8666 7.50019C49.8666 9.3878 46.8216 11.498 42.7463 11.498C38.6709 11.498 35.6259 9.3878 35.6259 7.50019C35.6259 5.61259 38.6709 3.50235 42.7463 3.50235ZM42.7463 0.00317562C36.8474 0.00317562 32.0656 3.35973 32.0656 7.50019C32.0656 11.6407 36.8474 14.9972 42.7463 14.9972C48.6451 14.9972 53.4268 11.6407 53.4268 7.50019C53.4268 3.35973 48.645 0.00317562 42.7463 0.00317562Z" fill="#F4F4F4"/>
</svg>
