<svg width="21" height="21" viewBox="0 0 21 21" fill="none" xmlns="http://www.w3.org/2000/svg">
<path d="M8.34729 16C12.4894 16 15.8473 12.6421 15.8473 8.5C15.8473 4.35786 12.4894 1 8.34729 1C4.20515 1 0.84729 4.35786 0.84729 8.5C0.84729 12.6421 4.20515 16 8.34729 16Z" stroke="black" stroke-width="1.4"/>
<path d="M19.2212 20.293L19.3271 20.3988L19.3394 20.3865C19.5899 20.5414 19.9229 20.5101 20.1403 20.2927C20.3576 20.0754 20.3888 19.7425 20.234 19.4919L20.2463 19.4796L20.1403 19.3735L20.1403 19.3735L20.0342 19.2674L20.0342 19.2674L14.5796 13.813L14.4736 13.7069C14.4736 13.7069 14.4736 13.7069 14.4736 13.7069C14.4735 13.7069 14.4735 13.7068 14.4735 13.7068L14.3675 13.6008L14.3552 13.6131C14.1046 13.4583 13.7717 13.4895 13.5544 13.7069L19.2212 20.293ZM19.2212 20.293C19.2212 20.2929 19.2211 20.2928 19.221 20.2927C19.221 20.2927 19.221 20.2927 19.221 20.2927L19.2212 20.293ZM13.5543 13.7069L13.6604 13.813L13.5543 13.7069ZM13.4606 14.5078C13.4866 14.5499 13.5178 14.5896 13.5543 14.6261L13.5543 14.6261L13.6604 14.7322L13.7665 14.6261L13.6604 14.5201L13.5543 14.414L13.4606 14.5078Z" fill="black" stroke="black" stroke-width="0.3"/>
</svg>
