<svg width="19" height="19" viewBox="0 0 19 19" fill="none" xmlns="http://www.w3.org/2000/svg">
<path fill-rule="evenodd" clip-rule="evenodd" d="M8.59773 0.0230685C6.21356 0.270963 4.09869 1.33519 2.46932 3.10689C0.173256 5.60357 -0.596075 9.22093 0.476558 12.4768C0.962801 13.9528 1.73373 15.1882 2.85995 16.2962C4.3519 17.764 6.16614 18.6442 8.33719 18.9534C8.77862 19.0163 10.2385 19.0153 10.6969 18.9518C12.8763 18.6499 14.7524 17.7188 16.2609 16.1903C17.7618 14.6695 18.6412 12.8676 18.9533 10.6735C19.0156 10.2361 19.0156 8.76842 18.9533 8.33101C18.7753 7.0793 18.4099 5.94933 17.8593 4.94742C17.4247 4.15651 16.9171 3.47913 16.2609 2.8142C14.7799 1.31355 12.9416 0.386191 10.8269 0.0728927C10.3711 0.0053325 9.05175 -0.0241159 8.59773 0.0230685ZM13.9471 5.76249C14.1112 5.83109 14.1899 5.98867 14.1899 6.24828C14.1899 6.48621 12.6193 13.9523 12.5348 14.1157C12.4157 14.3462 12.1614 14.4336 11.8998 14.3341C11.8127 14.301 10.9533 13.6818 9.69797 12.7477L9.38653 12.516L8.71092 13.1612C8.21873 13.6313 8.00245 13.8136 7.9142 13.833C7.84757 13.8477 7.78466 13.8513 7.77444 13.841C7.76418 13.8308 7.79164 13.2896 7.83546 12.6384L7.91513 11.4543L8.17603 11.2126C8.31951 11.0797 9.32585 10.1671 10.4123 9.18453C11.4988 8.20198 12.3877 7.37375 12.3877 7.344C12.3877 7.30619 12.3481 7.29098 12.2561 7.29344C12.1498 7.29634 11.5983 7.62867 9.37181 9.03171C7.85775 9.98581 6.59976 10.7664 6.57628 10.7664C6.47372 10.7664 4.13087 10.0129 4.01968 9.94416C3.78245 9.79744 3.83292 9.5749 4.1428 9.40156C4.22351 9.35642 4.81566 9.11648 5.45868 8.86837C6.1017 8.62029 7.31343 8.15276 8.15139 7.82946C8.98936 7.50616 10.486 6.92816 11.4772 6.54503C13.6503 5.70516 13.6299 5.71267 13.7359 5.71099C13.7826 5.71025 13.8776 5.73345 13.9471 5.76249Z" fill="white"/>
</svg>
