<?xml version="1.0" encoding="utf-8"?>
<!-- Generator: Adobe Illustrator 26.0.3, SVG Export Plug-In . SVG Version: 6.00 Build 0)  -->
<svg version="1.1" id="Слой_1" xmlns="http://www.w3.org/2000/svg" xmlns:xlink="http://www.w3.org/1999/xlink" x="0px" y="0px"
	 viewBox="0 0 20.4 20.4" style="enable-background:new 0 0 20.4 20.4;" xml:space="preserve">
<path d="M14.5,7.3c-0.2-2.4-2.3-4.1-4.7-3.9C7.7,3.6,6.1,5.2,5.9,7.3C5.8,8.1,6,8.9,6.3,9.6c0.3,0.6,0.7,1.1,1.2,1.5l0.1,0.1h5.1
	c0.2-0.2,0.4-0.3,0.5-0.5c0.2-0.2,0.3-0.4,0.5-0.6C14.3,9.3,14.6,8.3,14.5,7.3z M13.1,8.4c-0.4,1.6-2,2.5-3.6,2.1
	c-1-0.3-1.8-1.1-2.1-2.1c-0.1-0.5-0.1-1,0-1.5C7.7,5.8,8.6,5,9.8,4.8c0.2,0,0.4,0,0.6,0c0.2,0,0.4,0,0.6,0.1c1,0.3,1.7,1,2,2
	C13.1,7.4,13.1,7.9,13.1,8.4z M14.5,7.3c-0.2-2.4-2.3-4.1-4.7-3.9C7.7,3.6,6.1,5.2,5.9,7.3C5.8,8.1,6,8.9,6.3,9.6
	c0.3,0.6,0.7,1.1,1.2,1.5l0.1,0.1h5.1c0.2-0.2,0.4-0.3,0.5-0.5c0.2-0.2,0.3-0.4,0.5-0.6C14.3,9.3,14.6,8.3,14.5,7.3z M13.1,8.4
	c-0.4,1.6-2,2.5-3.6,2.1c-1-0.3-1.8-1.1-2.1-2.1c-0.1-0.5-0.1-1,0-1.5C7.7,5.8,8.6,5,9.8,4.8c0.2,0,0.4,0,0.6,0c0.2,0,0.4,0,0.6,0.1
	c1,0.3,1.7,1,2,2C13.1,7.4,13.1,7.9,13.1,8.4z M14.5,7.3c-0.2-2.4-2.3-4.1-4.7-3.9C7.7,3.6,6.1,5.2,5.9,7.3C5.8,8.1,6,8.9,6.3,9.6
	c0.3,0.6,0.7,1.1,1.2,1.5l0.1,0.1h5.1c0.2-0.2,0.4-0.3,0.5-0.5c0.2-0.2,0.3-0.4,0.5-0.6C14.3,9.3,14.6,8.3,14.5,7.3z M13.1,8.4
	c-0.4,1.6-2,2.5-3.6,2.1c-1-0.3-1.8-1.1-2.1-2.1c-0.1-0.5-0.1-1,0-1.5C7.7,5.8,8.6,5,9.8,4.8c0.2,0,0.4,0,0.6,0c0.2,0,0.4,0,0.6,0.1
	c1,0.3,1.7,1,2,2C13.1,7.4,13.1,7.9,13.1,8.4z M14.5,7.3c-0.2-2.4-2.3-4.1-4.7-3.9C7.7,3.6,6.1,5.2,5.9,7.3C5.8,8.1,6,8.9,6.3,9.6
	c0.3,0.6,0.7,1.1,1.2,1.5l0.1,0.1h5.1c0.2-0.2,0.4-0.3,0.5-0.5c0.2-0.2,0.3-0.4,0.5-0.6C14.3,9.3,14.6,8.3,14.5,7.3z M13.1,8.4
	c-0.4,1.6-2,2.5-3.6,2.1c-1-0.3-1.8-1.1-2.1-2.1c-0.1-0.5-0.1-1,0-1.5C7.7,5.8,8.6,5,9.8,4.8c0.2,0,0.4,0,0.6,0c0.2,0,0.4,0,0.6,0.1
	c1,0.3,1.7,1,2,2C13.1,7.4,13.1,7.9,13.1,8.4z M20.1,8.1c-0.6-2.8-2.3-5.2-4.8-6.6c-1.2-0.7-2.5-1.1-3.8-1.3c-0.2,0-0.6,0-1,0
	s-0.8,0-1,0H9C5.8,0.6,3.1,2.4,1.5,5.1C0.8,6.3,0.4,7.6,0.2,9c0,0.2,0,0.7,0,1.2s0,1,0,1.2c0.4,3.1,2.2,5.9,4.9,7.5
	c1.2,0.7,2.5,1.2,3.9,1.3c0.2,0,0.7,0,1.2,0s1,0,1.2,0c2.4-0.3,4.6-1.4,6.3-3.2c1-1,1.7-2.3,2.1-3.6c0.3-1,0.5-2.1,0.4-3.2
	C20.3,9.5,20.3,8.8,20.1,8.1L20.1,8.1z M15.7,17l-0.2,0.1c-1.2,0.9-2.7,1.5-4.2,1.8c-0.4,0-0.7,0-1.1,0c-0.4,0-0.7,0-1.1,0
	c-1.5-0.2-3-0.8-4.2-1.8L4.6,17l0,0l0,0c0-0.1,0-0.1,0-0.2c0.2-1,0.6-1.9,1.3-2.7c0.7-0.8,1.5-1.3,2.4-1.7c0.8-0.3,1.7-0.4,2.6-0.2
	c1.2,0.2,2.3,0.7,3.2,1.6c0.6,0.6,1.1,1.4,1.4,2.3c0,0.1,0.1,0.4,0.2,0.6C15.7,16.8,15.7,16.9,15.7,17C15.7,17,15.7,17,15.7,17
	L15.7,17z M18.6,12.5c-0.3,1.1-0.8,2.1-1.5,3l-0.1,0.2c0-0.1,0-0.1-0.1-0.2c-0.4-1.2-1.1-2.3-2-3.1c-0.6-0.5-1.3-0.9-2-1.3l-5.3,0.1
	c-1.1,0.5-2.1,1.3-2.9,2.3c-0.4,0.6-0.8,1.3-1,2.1c0,0.1,0,0.2-0.1,0.2l-0.2-0.2C3.2,15.4,3,15.1,2.9,15c-0.3-0.5-0.6-1.1-0.8-1.6
	c-0.3-0.8-0.5-1.7-0.6-2.6c-0.2-2.8,1-5.5,3.2-7.3c3.7-3,9.1-2.5,12.1,1.2C18.7,6.8,19.4,9.8,18.6,12.5L18.6,12.5z M13.3,10.6
	c0.2-0.2,0.3-0.4,0.5-0.6c1.4-1.9,0.9-4.6-1-6s-4.6-0.9-6,1C6.2,5.8,6,6.5,5.9,7.3C5.8,8.1,6,8.9,6.3,9.6c0.3,0.6,0.7,1.1,1.2,1.5
	l0.1,0.1h5.1C13,11,13.1,10.8,13.3,10.6L13.3,10.6z M10.2,10.6c-1.3,0-2.5-0.9-2.8-2.2c-0.1-0.5-0.1-1,0-1.5C7.7,5.8,8.6,5,9.8,4.8
	c0.2,0,0.4,0,0.6,0c0.2,0,0.4,0,0.6,0.1c1,0.3,1.7,1,2,2c0.1,0.5,0.1,1,0,1.5C12.6,9.7,11.5,10.6,10.2,10.6L10.2,10.6z"/>
</svg>
