<svg id="Слой_1" data-name="Слой 1" xmlns="http://www.w3.org/2000/svg" viewBox="0 0 20.4 20.4"><defs><style>.cls-1{stroke:#000;stroke-width:0.2px;}</style></defs><path class="cls-1" d="M15.29,8.07a4.31,4.31,0,0,0-8.58,0,4.22,4.22,0,0,0,.43,2.32,4.41,4.41,0,0,0,1.22,1.5l.08.07h5.13a4.62,4.62,0,0,0,.54-.51,5.21,5.21,0,0,0,.47-.55A4.31,4.31,0,0,0,15.29,8.07ZM13.85,9.22a2.95,2.95,0,0,1-5.7,0,3.05,3.05,0,0,1,0-1.53,3,3,0,0,1,2.41-2.12,2.61,2.61,0,0,1,.57,0,3.61,3.61,0,0,1,.63.09,3,3,0,0,1,2,2A3.3,3.3,0,0,1,13.85,9.22Zm1.44-1.15a4.31,4.31,0,0,0-8.58,0,4.22,4.22,0,0,0,.43,2.32,4.41,4.41,0,0,0,1.22,1.5l.08.07h5.13a4.62,4.62,0,0,0,.54-.51,5.21,5.21,0,0,0,.47-.55A4.31,4.31,0,0,0,15.29,8.07ZM13.85,9.22a2.95,2.95,0,0,1-5.7,0,3.05,3.05,0,0,1,0-1.53,3,3,0,0,1,2.41-2.12,2.61,2.61,0,0,1,.57,0,3.61,3.61,0,0,1,.63.09,3,3,0,0,1,2,2A3.3,3.3,0,0,1,13.85,9.22Zm1.44-1.15a4.31,4.31,0,0,0-8.58,0,4.22,4.22,0,0,0,.43,2.32,4.41,4.41,0,0,0,1.22,1.5l.08.07h5.13a4.62,4.62,0,0,0,.54-.51,5.21,5.21,0,0,0,.47-.55A4.31,4.31,0,0,0,15.29,8.07ZM13.85,9.22a2.95,2.95,0,0,1-5.7,0,3.05,3.05,0,0,1,0-1.53,3,3,0,0,1,2.41-2.12,2.61,2.61,0,0,1,.57,0,3.61,3.61,0,0,1,.63.09,3,3,0,0,1,2,2A3.3,3.3,0,0,1,13.85,9.22Zm1.44-1.15a4.31,4.31,0,0,0-8.58,0,4.22,4.22,0,0,0,.43,2.32,4.41,4.41,0,0,0,1.22,1.5l.08.07h5.13a4.62,4.62,0,0,0,.54-.51,5.21,5.21,0,0,0,.47-.55A4.31,4.31,0,0,0,15.29,8.07ZM13.85,9.22a2.95,2.95,0,0,1-5.7,0,3.05,3.05,0,0,1,0-1.53,3,3,0,0,1,2.41-2.12,2.61,2.61,0,0,1,.57,0,3.61,3.61,0,0,1,.63.09,3,3,0,0,1,2,2A3.3,3.3,0,0,1,13.85,9.22Zm7-.31a10.21,10.21,0,0,0-4.76-6.62A10.36,10.36,0,0,0,12.27,1c-.18,0-.62,0-1,0s-.83,0-1,0L9.77,1a10.08,10.08,0,0,0-7.49,4.9A10.31,10.31,0,0,0,1,9.78c0,.25,0,.74,0,1.23s0,1,0,1.22a10.14,10.14,0,0,0,4.91,7.49,10.31,10.31,0,0,0,3.91,1.33c.25,0,.74.05,1.23.05s1,0,1.23-.05a10.07,10.07,0,0,0,6.25-3.24,9.92,9.92,0,0,0,2.13-3.64A9.14,9.14,0,0,0,21.1,11,8.76,8.76,0,0,0,20.9,8.91Zm-4.38,8.87-.18.14a9,9,0,0,1-4.24,1.76,10.41,10.41,0,0,1-1.1,0,10.29,10.29,0,0,1-1.1,0,9,9,0,0,1-4.24-1.76l-.19-.14,0,0v0c0-.06,0-.14,0-.23a5.63,5.63,0,0,1,1.26-2.65,5.71,5.71,0,0,1,2.44-1.67,5.55,5.55,0,0,1,2.61-.25,5.31,5.31,0,0,1,3.15,1.59,5.36,5.36,0,0,1,1.4,2.25c.05.15.11.42.16.64a2.52,2.52,0,0,1,.06.29s0,.05,0,.06Zm2.9-4.43a8.6,8.6,0,0,1-1.55,3l-.14.19c0-.07-.05-.14-.08-.23a7.18,7.18,0,0,0-2-3.13,7.89,7.89,0,0,0-2-1.27L8.29,12a7.22,7.22,0,0,0-2.9,2.27,7.48,7.48,0,0,0-1,2.07c0,.08,0,.16-.07.22l-.16-.21c-.15-.19-.31-.42-.42-.58a11.51,11.51,0,0,1-.85-1.64,9,9,0,0,1-.56-2.62A8.73,8.73,0,0,1,5.53,4.19,8.73,8.73,0,0,1,17.67,5.36,8.73,8.73,0,0,1,19.42,13.35Zm-5.31-1.91a5.21,5.21,0,0,0,.47-.55A4.31,4.31,0,1,0,6.71,8.07a4.22,4.22,0,0,0,.43,2.32,4.41,4.41,0,0,0,1.22,1.5l.08.07h5.13A4.62,4.62,0,0,0,14.11,11.44Zm-3.11,0A2.91,2.91,0,0,1,8.15,9.22a3.05,3.05,0,0,1,0-1.53,3,3,0,0,1,2.41-2.12,2.61,2.61,0,0,1,.57,0,3.61,3.61,0,0,1,.63.09,3,3,0,0,1,2,2,3.3,3.3,0,0,1,0,1.53A2.92,2.92,0,0,1,11,11.41Z" transform="translate(-0.8 -0.8)"/></svg>