<svg width="19" height="19" viewBox="0 0 19 19" fill="none" xmlns="http://www.w3.org/2000/svg">
<path fill-rule="evenodd" clip-rule="evenodd" d="M8.5981 0.0230685C5.62528 0.332203 3.01987 1.95008 1.43716 4.46986C-0.806867 8.04253 -0.388049 12.7611 2.44904 15.8694C4.01915 17.5896 5.98278 18.6181 8.33758 18.9535C8.77721 19.0161 10.2382 19.0153 10.6972 18.9522C12.8478 18.6565 14.7739 17.7027 16.2388 16.2079C16.7196 15.7173 16.822 15.6 17.1409 15.1747C18.0911 13.9072 18.7133 12.3622 18.9534 10.6735C19.0155 10.236 19.0155 8.7683 18.9533 8.33103C18.7932 7.20533 18.502 6.24621 18.0348 5.30554C17.5399 4.3089 17.0319 3.59838 16.2413 2.79669C14.7747 1.30951 12.9383 0.385671 10.8272 0.0728929C10.3714 0.00533251 9.05211 -0.0241159 8.5981 0.0230685ZM10.9573 3.78808C14.2825 4.58059 16.1698 7.9398 15.1003 11.1622C14.8242 11.9944 14.3883 12.6899 13.7271 13.3535C12.8903 14.1934 11.9858 14.6837 10.8087 14.9356C10.4864 15.0045 10.2988 15.0193 9.73104 15.0205C8.78914 15.0226 8.20392 14.9025 7.37338 14.5367C7.16908 14.4468 6.97641 14.3735 6.94516 14.3739C6.91395 14.3743 6.23624 14.5472 5.43918 14.7581C4.64212 14.9689 3.98593 15.1389 3.98099 15.1356C3.97601 15.1324 4.15244 14.4707 4.37306 13.6652L4.77415 12.2007L4.59932 11.8461C4.20432 11.0451 4.03108 10.2834 4.03246 9.35355C4.03472 7.76188 4.59664 6.41097 5.71821 5.30066C6.59951 4.42822 7.71279 3.88219 9.00644 3.68795C9.06776 3.67877 9.44399 3.67661 9.84252 3.68316C10.4594 3.69331 10.6251 3.70892 10.9573 3.78808ZM9.30372 4.63759C7.48397 4.7678 5.8188 6.07097 5.23622 7.82078C5.04782 8.38662 4.99536 8.72052 4.99536 9.35355C4.99536 10.3153 5.17803 10.9587 5.72014 11.906L5.8084 12.0602L5.57623 12.9058C5.44855 13.3708 5.35108 13.7582 5.35963 13.7668C5.36817 13.7754 5.76421 13.6796 6.23974 13.5539L7.10435 13.3255L7.55375 13.5501C8.2937 13.92 8.93692 14.075 9.73379 14.0755C11.7312 14.0766 13.5539 12.7586 14.1863 10.8559C14.3775 10.2805 14.4245 9.98435 14.4247 9.35355C14.4248 8.89877 14.4074 8.69486 14.3421 8.3868C13.9391 6.48608 12.4429 5.02949 10.5472 4.69236C10.1442 4.62071 9.76984 4.60424 9.30372 4.63759ZM8.17847 6.79986C8.29596 6.93186 8.77446 8.12062 8.74975 8.21915C8.73834 8.26459 8.62839 8.43306 8.50543 8.59354C8.38247 8.75402 8.28184 8.91241 8.28184 8.94551C8.28184 9.01567 8.57871 9.45617 8.80935 9.72827C9.05899 10.0227 9.52905 10.3813 9.92951 10.5826C10.4309 10.8347 10.4558 10.8317 10.7425 10.4811C11.0995 10.0447 11.1325 10.0148 11.2273 10.0424C11.3413 10.0757 12.4041 10.5718 12.5137 10.6429C12.5966 10.6966 12.601 10.7167 12.5815 10.9487C12.5701 11.0854 12.5325 11.2677 12.498 11.3539C12.4207 11.5473 12.1402 11.8058 11.8562 11.9453C11.66 12.0418 11.6126 12.0492 11.1988 12.0486C10.7879 12.0479 10.7252 12.038 10.3999 11.9224C9.86169 11.7312 9.52756 11.5679 9.12323 11.2986C8.34011 10.7769 7.4173 9.73336 7.03706 8.93937C6.87244 8.59569 6.82068 8.33412 6.83974 7.94244C6.85765 7.57403 6.95282 7.33064 7.19825 7.02541C7.39612 6.77933 7.52949 6.71549 7.84805 6.71445C8.0671 6.71371 8.11214 6.72535 8.17847 6.79986Z" fill="white"/>
</svg>
