<svg width="19" height="19" viewBox="0 0 19 19" fill="none" xmlns="http://www.w3.org/2000/svg">
<path d="M7.54639 14.0928C11.1619 14.0928 14.0928 11.1619 14.0928 7.54639C14.0928 3.93092 11.1619 1 7.54639 1C3.93092 1 1 3.93092 1 7.54639C1 11.1619 3.93092 14.0928 7.54639 14.0928Z" stroke="white" stroke-width="1.4"/>
<path d="M17.0243 17.8536L17.1302 17.9594L17.1439 17.9458C17.3683 18.0766 17.6611 18.0457 17.8535 17.8534C18.0458 17.661 18.0765 17.3683 17.9458 17.1438L17.9595 17.1301L17.8535 17.0241L17.8535 17.024L17.7474 16.9179L17.7474 16.918L13.0133 12.184L12.9073 12.0779C12.9073 12.0779 12.9073 12.0779 12.9073 12.0779C12.9072 12.0779 12.9072 12.0779 12.9072 12.0778L12.8012 11.9719L12.7875 11.9856C12.563 11.8548 12.2703 11.8856 12.078 12.0779L17.0243 17.8536ZM17.0243 17.8536C17.0243 17.8535 17.0242 17.8534 17.0241 17.8534C17.0241 17.8534 17.0241 17.8533 17.0241 17.8533L12.184 13.0133L12.0779 12.9073L12.0779 12.9073L11.9719 12.8012L11.9856 12.7875M17.0243 17.8536L11.9856 12.7875M11.9856 12.7875C11.8548 12.563 11.8855 12.2703 12.0779 12.0779L11.9856 12.7875Z" fill="white" stroke="white" stroke-width="0.3"/>
</svg>
