<svg width="120" height="15" viewBox="0 0 120 15" fill="none" xmlns="http://www.w3.org/2000/svg">
<path d="M3.69821 13.9946L0.0526428 0.573649H2.44402L5.24504 10.8817L8.24698 0.572754L10.4761 0.573649L13.4886 10.9364L16.3022 0.576183L18.6935 0.572754L15.0464 13.9922L12.2745 13.9894L9.36248 3.96681L6.44768 13.992L3.69821 13.9946Z" fill="white"/>
<path d="M20.3428 0.580688H22.6191V13.986H20.3428V0.580688Z" fill="white"/>
<path d="M27.486 11.8832H33.0278V13.986H25.2567V0.580688H27.486V11.8832Z" fill="white"/>
<path d="M40.0297 0.596144C41.8979 0.596144 43.4522 1.24555 44.6767 2.52887C45.9169 3.81218 46.5449 5.40477 46.5449 7.29107C46.5449 9.16197 45.9169 10.7545 44.6767 12.0533C43.4522 13.3366 41.8979 13.986 40.0297 13.986H34.6763V0.580688H40.0297V0.596144ZM40.0297 11.8987C41.317 11.8987 42.3689 11.4657 43.1538 10.5999C43.9702 9.73405 44.3784 8.62081 44.3784 7.30653C44.3784 5.96139 43.9702 4.87906 43.1538 4.01321C42.3532 3.14732 41.3014 2.71439 40.0297 2.71439H36.9213V11.8987H40.0297Z" fill="white"/>
<path d="M58.5547 10.1565C58.5547 11.2548 58.1625 12.1675 57.3618 12.8946C56.561 13.6217 55.619 13.993 54.4574 13.993H48.6329V0.580688H54.0334C55.1482 0.580688 56.0898 0.951986 56.8591 1.64811C57.6444 2.3597 58.0212 3.2415 58.0212 4.29341C58.0212 5.46913 57.5499 6.36639 56.6397 7.0316C57.8326 7.6504 58.5547 8.76419 58.5547 10.1565ZM50.8778 2.65366V6.18076H54.0488C55.0382 6.18076 55.7917 5.40726 55.7917 4.41721C55.7917 3.42712 55.0382 2.65366 54.0488 2.65366H50.8778ZM54.4729 11.92C55.509 11.92 56.3256 11.1001 56.3256 10.0482C56.3256 8.99623 55.509 8.17635 54.4729 8.17635H50.8778V11.9355H54.4729V11.92Z" fill="white"/>
<path d="M62.9032 11.8891H68.9319V13.993H60.6742V0.580688H68.8378V2.68457H62.9032V6.16526H68.3511V8.25368H62.9032V11.8891Z" fill="white"/>
<path d="M78.697 13.993L75.8081 9.10452H73.1705V13.993H70.9414V0.580688H76.3888C77.6136 0.580688 78.6497 0.998355 79.4818 1.84919C80.3293 2.66912 80.7692 3.69012 80.7692 4.89675C80.7692 6.59843 79.6858 8.16085 78.0689 8.77964L81.1614 13.993H78.697ZM73.1705 2.65361V7.13984H76.3734C77.5663 7.13984 78.5084 6.1498 78.5084 4.89675C78.5084 3.65916 77.5509 2.65361 76.3734 2.65361H73.1705Z" fill="white"/>
<path d="M90.6125 13.9928L87.7395 9.10186H85.1019V13.9928H82.8729V0.573608H88.3203C89.545 0.573608 90.5811 0.991522 91.4132 1.84281C92.2607 2.66313 92.7007 3.68463 92.7007 4.89191C92.7007 6.59448 91.6173 8.15774 90.0004 8.77684L93.0928 13.9928H90.6125ZM85.1019 2.64762V7.13619H88.3048C89.4977 7.13619 90.4398 6.1456 90.4398 4.89191C90.4398 3.65372 89.4823 2.64762 88.3048 2.64762H85.1019Z" fill="white"/>
<path d="M94.7256 0.575073H96.9552V13.9928H94.7256V0.575073Z" fill="white"/>
<path d="M101.822 11.8891H107.85V13.9929H99.5923V0.580688H107.756V2.68457H101.822V6.16526H107.269V8.25368H101.822V11.8891Z" fill="white"/>
<path d="M109.405 10.94L111.336 9.82675C111.885 11.342 113 12.0842 114.711 12.0842C116.406 12.0842 117.238 11.3729 117.238 10.3216C117.238 9.76493 117.003 9.36292 116.564 9.0846C116.124 8.79084 115.307 8.46611 114.146 8.12597C112.842 7.73942 112.199 7.49202 111.288 6.90448C110.409 6.28604 109.969 5.40468 109.969 4.1987C109.969 3.00812 110.394 2.08045 111.257 1.38467C112.105 0.673389 113.141 0.333252 114.35 0.333252C116.532 0.333252 118.212 1.4465 119.091 3.28643L117.207 4.35331C116.642 3.11637 115.684 2.48241 114.35 2.48241C113.047 2.48241 112.214 3.13182 112.214 4.15228C112.214 5.14188 112.874 5.60571 114.962 6.23962C115.48 6.40973 115.857 6.53343 116.092 6.62617C116.344 6.7035 116.673 6.84266 117.097 7.01273C117.537 7.18279 117.882 7.38382 118.086 7.55389C118.808 8.11052 119.577 9.02273 119.483 10.3061C119.483 11.5121 119.044 12.4862 118.149 13.1974C117.27 13.9087 116.108 14.2488 114.664 14.2488C112.026 14.2334 110.111 12.9964 109.405 10.94Z" fill="white"/>
</svg>
