<?xml version="1.0" encoding="utf-8"?>
<!-- Generator: Adobe Illustrator 26.0.3, SVG Export Plug-In . SVG Version: 6.00 Build 0)  -->
<svg version="1.1" id="Слой_1" xmlns="http://www.w3.org/2000/svg" xmlns:xlink="http://www.w3.org/1999/xlink" x="0px" y="0px"
	 viewBox="0 0 120 15" style="enable-background:new 0 0 120 15;" xml:space="preserve">
<style type="text/css">
	.st0{fill:#FFFFFF;}
</style>
<path class="st0" d="M3.9,14.2L0.3,0.8h2.4l2.8,10.3l3-10.3l2.2,0l3,10.4l2.8-10.4l2.4,0l-3.6,13.4l-2.8,0l-2.9-10l-2.9,10L3.9,14.2
	z"/>
<path class="st0" d="M20.6,0.8h2.3v13.4h-2.3V0.8z"/>
<path class="st0" d="M27.7,12.1h5.5v2.1h-7.8V0.8h2.2V12.1z"/>
<path class="st0" d="M40.3,0.8c1.9,0,3.4,0.6,4.6,1.9c1.2,1.3,1.9,2.9,1.9,4.8c0,1.9-0.6,3.5-1.9,4.8c-1.2,1.3-2.8,1.9-4.6,1.9h-5.4
	V0.8L40.3,0.8L40.3,0.8z M40.3,12.1c1.3,0,2.3-0.4,3.1-1.3c0.8-0.9,1.2-2,1.2-3.3c0-1.3-0.4-2.4-1.2-3.3c-0.8-0.9-1.9-1.3-3.1-1.3
	h-3.1v9.2H40.3z"/>
<path class="st0" d="M58.8,10.4c0,1.1-0.4,2-1.2,2.7c-0.8,0.7-1.7,1.1-2.9,1.1h-5.8V0.8h5.4c1.1,0,2.1,0.4,2.8,1.1
	c0.8,0.7,1.2,1.6,1.2,2.6c0,1.2-0.5,2.1-1.4,2.7C58.1,7.9,58.8,9,58.8,10.4z M51.1,2.9v3.5h3.2c1,0,1.7-0.8,1.7-1.8
	c0-1-0.8-1.8-1.7-1.8H51.1z M54.7,12.1c1,0,1.9-0.8,1.9-1.9c0-1.1-0.8-1.9-1.9-1.9h-3.6v3.8L54.7,12.1L54.7,12.1z"/>
<path class="st0" d="M63.1,12.1h6v2.1h-8.3V0.8h8.2v2.1h-5.9v3.5h5.4v2.1h-5.4V12.1z"/>
<path class="st0" d="M78.9,14.2L76,9.3h-2.6v4.9h-2.2V0.8h5.4c1.2,0,2.3,0.4,3.1,1.3c0.8,0.8,1.3,1.8,1.3,3c0,1.7-1.1,3.3-2.7,3.9
	l3.1,5.2H78.9z M73.4,2.9v4.5h3.2c1.2,0,2.1-1,2.1-2.2c0-1.2-1-2.2-2.1-2.2H73.4z"/>
<path class="st0" d="M90.8,14.2L88,9.3h-2.6v4.9h-2.2V0.8h5.4c1.2,0,2.3,0.4,3.1,1.3c0.8,0.8,1.3,1.8,1.3,3c0,1.7-1.1,3.3-2.7,3.9
	l3.1,5.2H90.8z M85.3,2.9v4.5h3.2c1.2,0,2.1-1,2.1-2.2c0-1.2-1-2.2-2.1-2.2H85.3z"/>
<path class="st0" d="M95,0.8h2.2v13.4H95V0.8z"/>
<path class="st0" d="M102.1,12.1h6v2.1h-8.3V0.8h8.2v2.1h-5.9v3.5h5.4v2.1h-5.4V12.1z"/>
<path class="st0" d="M109.6,11.1l1.9-1.1c0.5,1.5,1.7,2.3,3.4,2.3c1.7,0,2.5-0.7,2.5-1.8c0-0.6-0.2-1-0.7-1.2
	c-0.4-0.3-1.3-0.6-2.4-1c-1.3-0.4-1.9-0.6-2.9-1.2c-0.9-0.6-1.3-1.5-1.3-2.7c0-1.2,0.4-2.1,1.3-2.8c0.8-0.7,1.9-1.1,3.1-1.1
	c2.2,0,3.9,1.1,4.7,3l-1.9,1.1c-0.6-1.2-1.5-1.9-2.9-1.9c-1.3,0-2.1,0.6-2.1,1.7c0,1,0.7,1.5,2.7,2.1c0.5,0.2,0.9,0.3,1.1,0.4
	c0.3,0.1,0.6,0.2,1,0.4c0.4,0.2,0.8,0.4,1,0.5c0.7,0.6,1.5,1.5,1.4,2.8c0,1.2-0.4,2.2-1.3,2.9c-0.9,0.7-2,1.1-3.5,1.1
	C112.3,14.4,110.3,13.2,109.6,11.1z"/>
</svg>
