<svg width="15" height="6" viewBox="0 0 15 6" fill="none" xmlns="http://www.w3.org/2000/svg">
<path d="M14.175 2.30186H12.0994C11.8463 1.13748 10.8338 0.276855 9.61875 0.276855C8.40375 0.276855 7.39125 1.13748 7.13813 2.30186H0V3.31436H7.13813C7.39125 4.47873 8.40375 5.33936 9.61875 5.33936C10.8338 5.33936 11.8463 4.47873 12.0994 3.31436H14.175V2.30186ZM9.61875 4.32686C8.75813 4.32686 8.1 3.66873 8.1 2.80811C8.1 1.94748 8.75813 1.28936 9.61875 1.28936C10.4794 1.28936 11.1375 1.94748 11.1375 2.80811C11.1375 3.66873 10.4794 4.32686 9.61875 4.32686Z" fill="black"/>
</svg>
