<svg width="15" height="6" viewBox="0 0 15 6" fill="none" xmlns="http://www.w3.org/2000/svg">
<path d="M0 3.40176H2.07562C2.32875 4.56613 3.34125 5.42676 4.55625 5.42676C5.77125 5.42676 6.78375 4.56613 7.03688 3.40176H14.175V2.38926H7.03688C6.78375 1.22488 5.77125 0.364258 4.55625 0.364258C3.34125 0.364258 2.32875 1.22488 2.07562 2.38926H0V3.40176ZM4.55625 1.37676C5.41688 1.37676 6.075 2.03488 6.075 2.89551C6.075 3.75613 5.41688 4.41426 4.55625 4.41426C3.69563 4.41426 3.0375 3.75613 3.0375 2.89551C3.0375 2.03488 3.69563 1.37676 4.55625 1.37676Z" fill="black"/>
</svg>
