<svg width="18" height="18" viewBox="0 0 18 18" fill="none" xmlns="http://www.w3.org/2000/svg">
<path d="M7.41852 11.4002L7.41852 14.6002C7.41852 15.9257 8.49301 17.0002 9.81853 17.0002L13.0186 9.80018L13.0186 1.00012L3.72249 1.00012C2.92467 0.991099 2.24208 1.57128 2.12248 2.36013L1.01847 9.56018C0.94803 10.0243 1.08496 10.496 1.39297 10.8502C1.70101 11.2044 2.14906 11.4055 2.61848 11.4002L7.41852 11.4002Z" stroke="black" stroke-linejoin="round"/>
<path d="M13.0185 9.8889L15.1545 9.8889C16.0917 9.90548 16.8929 9.12916 17.0186 8.20031L17.0186 2.60027C16.8929 1.67138 16.0917 0.983683 15.1545 1.00026L13.0185 1.00026L13.0185 9.8889Z" fill="#E30613" stroke="black" stroke-linejoin="round"/>
</svg>
