<svg width="19" height="19" viewBox="0 0 19 19" fill="none" xmlns="http://www.w3.org/2000/svg">
<g clip-path="url(#clip0_151_3374)">
<path d="M18.2839 8.7839C17.8884 8.7839 17.5678 9.10445 17.5678 9.5C17.5678 13.9488 13.9488 17.5678 9.5 17.5678C5.05148 17.5678 1.43216 13.9488 1.43216 9.5C1.43216 5.05148 5.05148 1.43216 9.5 1.43216C9.89551 1.43216 10.2161 1.11161 10.2161 0.7161C10.2161 0.320551 9.89551 0 9.5 0C4.26164 0 0 4.26164 0 9.5C0 14.7381 4.26164 19 9.5 19C14.7381 19 19 14.7381 19 9.5C19 9.10449 18.6794 8.7839 18.2839 8.7839Z" fill="#E30613"/>
<g clip-path="url(#clip1_151_3374)">
<path d="M5.4667 14C5.34815 14 5.2296 13.9549 5.13952 13.8642C4.9587 13.6834 4.9587 13.3902 5.13952 13.2094L13.2133 5.13562C13.3941 4.95479 13.6873 4.95479 13.8681 5.13562C14.0489 5.31644 14.0489 5.6096 13.8681 5.79054L5.79444 13.8642C5.70369 13.9544 5.58514 14 5.4667 14Z" fill="#E30613"/>
<path d="M13.541 14C13.4225 14 13.304 13.9549 13.2138 13.8642L5.13952 5.79054C4.9587 5.6096 4.9587 5.31644 5.13952 5.13562C5.32035 4.95479 5.61351 4.95479 5.79444 5.13562L13.8681 13.2094C14.0489 13.3902 14.0489 13.6834 13.8681 13.8642C13.7773 13.9544 13.6589 14 13.541 14Z" fill="#E30613"/>
</g>
</g>
<defs>
<clipPath id="clip0_151_3374">
<rect width="19" height="19" fill="white"/>
</clipPath>
<clipPath id="clip1_151_3374">
<rect width="9" height="9" fill="white" transform="translate(5 5)"/>
</clipPath>
</defs>
</svg>
