<svg width="19" height="19" viewBox="0 0 19 19" fill="none" xmlns="http://www.w3.org/2000/svg">
<g clip-path="url(#clip0_151_3363)">
<path d="M18.4552 2.59753C18.1757 2.31754 17.7222 2.31706 17.4427 2.59634L8.85209 11.1642L5.75264 7.79793C5.48482 7.50721 5.03201 7.48836 4.74082 7.75614C4.44984 8.02396 4.43121 8.47699 4.69903 8.76796L8.30332 12.6823C8.43532 12.8258 8.62005 12.9091 8.81483 12.9131C8.82007 12.9133 8.82511 12.9133 8.83012 12.9133C9.01942 12.9133 9.20151 12.8382 9.33566 12.7045L18.4538 3.61028C18.734 3.33103 18.7345 2.87752 18.4552 2.59753Z" fill="#259D22"/>
<path d="M18.2839 8.7839C17.8884 8.7839 17.5678 9.10445 17.5678 9.5C17.5678 13.9488 13.9488 17.5678 9.5 17.5678C5.05148 17.5678 1.43216 13.9488 1.43216 9.5C1.43216 5.05148 5.05148 1.43216 9.5 1.43216C9.89551 1.43216 10.2161 1.11161 10.2161 0.7161C10.2161 0.320551 9.89551 0 9.5 0C4.26164 0 0 4.26164 0 9.5C0 14.7381 4.26164 19 9.5 19C14.7381 19 19 14.7381 19 9.5C19 9.10449 18.6794 8.7839 18.2839 8.7839Z" fill="#259D22"/>
</g>
<defs>
<clipPath id="clip0_151_3363">
<rect width="19" height="19" fill="white"/>
</clipPath>
</defs>
</svg>
